<svg id="ShipnFlames" xmlns="http://www.w3.org/2000/svg" xmlns:xlink="http://www.w3.org/1999/xlink" viewBox="0 0 755.18 139.67"><defs><style>.cls-1{fill:url(#linear-gradient);}.cls-2{fill:url(#linear-gradient-2);}.cls-3{fill:url(#linear-gradient-3);}</style><linearGradient id="linear-gradient" x1="396.49" y1="-600.69" x2="536.16" y2="-600.69" gradientTransform="matrix(0, -1, -1, 0, 341.17, 681.2)" gradientUnits="userSpaceOnUse"><stop offset="0" stop-color="#f15a24"/><stop offset="0.1" stop-color="#f36d22"/><stop offset="0.24" stop-color="#f58220"/><stop offset="0.38" stop-color="#f78f1e"/><stop offset="0.51" stop-color="#f7931e"/><stop offset="0.63" stop-color="#f78e1e"/><stop offset="0.77" stop-color="#f58120"/><stop offset="0.91" stop-color="#f36b22"/><stop offset="1" stop-color="#f15a24"/></linearGradient><linearGradient id="linear-gradient-2" x1="817.61" y1="261.71" x2="817.61" y2="168" gradientUnits="userSpaceOnUse"><stop offset="0" stop-color="#f15a24"/><stop offset="0.02" stop-color="#f26c24"/><stop offset="0.06" stop-color="#f58e23"/><stop offset="0.1" stop-color="#f7ac22"/><stop offset="0.15" stop-color="#f9c422"/><stop offset="0.2" stop-color="#fad721"/><stop offset="0.26" stop-color="#fbe421"/><stop offset="0.34" stop-color="#fcec21"/><stop offset="0.51" stop-color="#fcee21"/><stop offset="0.66" stop-color="#fcec21"/><stop offset="0.74" stop-color="#fbe421"/><stop offset="0.8" stop-color="#fad721"/><stop offset="0.86" stop-color="#f9c422"/><stop offset="0.9" stop-color="#f7ac22"/><stop offset="0.95" stop-color="#f58e23"/><stop offset="0.98" stop-color="#f26b24"/><stop offset="1" stop-color="#f15a24"/></linearGradient><linearGradient id="linear-gradient-3" x1="703.61" y1="240.64" x2="703.61" y2="189.07" gradientUnits="userSpaceOnUse"><stop offset="0" stop-color="#fcee21"/><stop offset="0.11" stop-color="#f9ee23"/><stop offset="0.18" stop-color="#f1ef2b"/><stop offset="0.24" stop-color="#e3f037"/><stop offset="0.29" stop-color="#cef149"/><stop offset="0.34" stop-color="#b4f361"/><stop offset="0.38" stop-color="#93f57d"/><stop offset="0.42" stop-color="#6cf8a0"/><stop offset="0.46" stop-color="#3ffbc7"/><stop offset="0.5" stop-color="#0efef3"/><stop offset="0.51" stop-color="aqua"/><stop offset="0.51" stop-color="#06fff9"/><stop offset="0.53" stop-color="#34fbd1"/><stop offset="0.55" stop-color="#5ff9ab"/><stop offset="0.58" stop-color="#85f68a"/><stop offset="0.6" stop-color="#a5f46d"/><stop offset="0.63" stop-color="#c1f255"/><stop offset="0.66" stop-color="#d7f142"/><stop offset="0.7" stop-color="#e8ef33"/><stop offset="0.75" stop-color="#f3ef29"/><stop offset="0.82" stop-color="#faee23"/><stop offset="1" stop-color="#fcee21"/></linearGradient></defs><path id="OuterFlame" class="cls-1" d="M1319.4,214.49c-43.33,2.32-95.15,15.13-143.32,28.21-48.72,13.32-93.8,26.9-136.39,36.58C953.62,298.16,641.55,263,574.81,246.59c-14-15.72-14-40.49,0-56.21,66.75-16.4,378.82-59.56,464.84-40.64,42.61,9.62,87.7,23.21,136.43,36.53C1224.25,199.36,1276.07,212.17,1319.4,214.49Z" transform="translate(-564.22 -145.04)"/><path id="MiddleFlame" class="cls-2" d="M1070.91,214.6c-29.07,1.55-63.84,10.15-96.16,18.92-32.68,8.94-62.93,18-91.5,24.55-57.75,12.66-267.12-10.93-311.89-21.94a28.74,28.74,0,0,1,0-37.71c44.78-11,254.15-40,311.86-27.26,28.59,6.45,58.84,15.57,91.53,24.51C1007.07,204.45,1041.84,213,1070.91,214.6Z" transform="translate(-564.22 -145.04)"/><path id="InnerFlame" class="cls-3" d="M843,214.71c-16,.86-35.13,5.59-52.91,10.42-18,4.92-34.63,9.93-50.36,13.5-31.78,7-147-6-171.63-12.07a15.82,15.82,0,0,1,0-20.75c24.64-6.05,139.86-22,171.62-15,15.73,3.55,32.38,8.57,50.37,13.48C807.87,209.13,827,213.86,843,214.71Z" transform="translate(-564.22 -145.04)"/></svg>