<svg xmlns="http://www.w3.org/2000/svg" xmlns:xlink="http://www.w3.org/1999/xlink" viewBox="0 0 1366 409"><defs><style>.cls-1{fill:none;}.cls-2{clip-path:url(#clip-path);}.cls-3{fill:url(#linear-gradient);}.cls-4{fill:#fff;}.cls-5{fill:#ccc;}.cls-5,.cls-7{opacity:0.25;}.cls-6{fill:url(#radial-gradient);}.cls-8{fill:url(#radial-gradient-2);}.cls-9{fill:url(#radial-gradient-3);}.cls-10{fill:url(#radial-gradient-4);}.cls-11{fill:url(#radial-gradient-5);}.cls-12{fill:url(#radial-gradient-6);}.cls-13{fill:url(#radial-gradient-7);}.cls-14{fill:#c60;}.cls-15{opacity:0.54;}.cls-16{fill:#036;}.cls-17{fill:url(#linear-gradient-2);}.cls-18{fill:url(#linear-gradient-3);}.cls-19{fill:url(#linear-gradient-4);}.cls-20{fill:url(#linear-gradient-5);}.cls-21{fill:#1a1a1a;}.cls-22{fill:url(#linear-gradient-6);}.cls-23{fill:url(#linear-gradient-7);}.cls-24{fill:url(#linear-gradient-8);}.cls-25{fill:url(#linear-gradient-9);}.cls-26{fill:url(#linear-gradient-10);}.cls-27{fill:url(#linear-gradient-11);}.cls-28{fill:url(#linear-gradient-12);}.cls-29{fill:#0071bc;}.cls-30{fill:#600;}.cls-31{fill:url(#linear-gradient-13);}.cls-32{fill:url(#linear-gradient-14);}.cls-33{fill:url(#linear-gradient-15);}.cls-34{fill:url(#linear-gradient-16);}.cls-35{fill:#ff0;}</style><clipPath id="clip-path"><rect class="cls-1" width="1366" height="409.56"/></clipPath><linearGradient id="linear-gradient" x1="656.62" y1="-50.88" x2="656.62" y2="502.21" gradientUnits="userSpaceOnUse"><stop offset="0.02" stop-color="#1b1464"/><stop offset="0.1" stop-color="#1b155c"/><stop offset="0.48" stop-color="#1a1838"/><stop offset="0.8" stop-color="#1a1922"/><stop offset="1" stop-color="#1a1a1a"/></linearGradient><radialGradient id="radial-gradient" cx="1292.95" cy="303.25" r="105.52" gradientUnits="userSpaceOnUse"><stop offset="0.02" stop-color="#ff7bac"/><stop offset="0.25" stop-color="#fd7bac"/><stop offset="0.38" stop-color="#f47bad"/><stop offset="0.49" stop-color="#e67aae"/><stop offset="0.59" stop-color="#d279af"/><stop offset="0.68" stop-color="#b878b0"/><stop offset="0.76" stop-color="#9977b2"/><stop offset="0.83" stop-color="#7375b5"/><stop offset="0.91" stop-color="#4774b8"/><stop offset="0.97" stop-color="#1672bb"/><stop offset="1" stop-color="#0071bc"/></radialGradient><radialGradient id="radial-gradient-2" cx="1313.2" cy="329.76" r="81.78" xlink:href="#radial-gradient"/><radialGradient id="radial-gradient-3" cx="1274.82" cy="275.11" r="81.2" xlink:href="#radial-gradient"/><radialGradient id="radial-gradient-4" cx="366.17" cy="66.64" r="47.48" gradientUnits="userSpaceOnUse"><stop offset="0" stop-color="aqua"/><stop offset="0.26" stop-color="#00fcfe"/><stop offset="0.42" stop-color="#00f4fa"/><stop offset="0.56" stop-color="#00e5f3"/><stop offset="0.69" stop-color="#00d0e9"/><stop offset="0.8" stop-color="#00b5dc"/><stop offset="0.91" stop-color="#0094cd"/><stop offset="1" stop-color="#0071bc"/></radialGradient><radialGradient id="radial-gradient-5" cx="375.28" cy="78.57" r="36.8" xlink:href="#radial-gradient-4"/><radialGradient id="radial-gradient-6" cx="358.02" cy="53.98" r="36.54" xlink:href="#radial-gradient-4"/><radialGradient id="radial-gradient-7" cx="1032.27" cy="17.31" r="192.42" gradientUnits="userSpaceOnUse"><stop offset="0.02" stop-color="#f7931e"/><stop offset="0.32" stop-color="#f5941f"/><stop offset="0.5" stop-color="#ec9821"/><stop offset="0.64" stop-color="#de9f26"/><stop offset="0.77" stop-color="#caa82c"/><stop offset="0.88" stop-color="#b0b534"/><stop offset="0.98" stop-color="#91c43d"/><stop offset="1" stop-color="#8cc63f"/></radialGradient><linearGradient id="linear-gradient-2" x1="681.27" y1="203.55" x2="681.27" y2="482.57" gradientUnits="userSpaceOnUse"><stop offset="0" stop-color="#f7931e"/><stop offset="0.06" stop-color="#f7a74a"/><stop offset="0.13" stop-color="#f7ba73"/><stop offset="0.2" stop-color="#f8cb97"/><stop offset="0.28" stop-color="#f8d9b5"/><stop offset="0.37" stop-color="#f8e4ce"/><stop offset="0.46" stop-color="#f8ede1"/><stop offset="0.58" stop-color="#f8f3ee"/><stop offset="0.72" stop-color="#f8f7f6"/><stop offset="1" stop-color="#f8f8f8"/></linearGradient><linearGradient id="linear-gradient-3" x1="1076.06" y1="-19.12" x2="1103.54" y2="-19.12" gradientTransform="matrix(-0.64, 0.77, 0.77, 0.64, 1303.3, -618.46)" gradientUnits="userSpaceOnUse"><stop offset="0.02"/><stop offset="0.28" stop-color="#343434"/><stop offset="0.43" stop-color="#4d4d4d"/><stop offset="0.44" stop-color="#484848"/><stop offset="0.52" stop-color="#2e2e2e"/><stop offset="0.61" stop-color="#1a1a1a"/><stop offset="0.7" stop-color="#0b0b0b"/><stop offset="0.81" stop-color="#030303"/><stop offset="1"/></linearGradient><linearGradient id="linear-gradient-4" x1="1108.37" y1="-19.12" x2="1135.85" y2="-19.12" gradientTransform="matrix(-0.64, 0.77, 0.77, 0.64, 1303.3, -618.46)" gradientUnits="userSpaceOnUse"><stop offset="0.02"/><stop offset="0.14" stop-color="#040404"/><stop offset="0.25" stop-color="#0f0f0f"/><stop offset="0.36" stop-color="#222"/><stop offset="0.47" stop-color="#3c3c3c"/><stop offset="0.53" stop-color="#4d4d4d"/><stop offset="0.84" stop-color="#161616"/><stop offset="1"/></linearGradient><linearGradient id="linear-gradient-5" x1="1090.67" y1="-19" x2="1120.89" y2="-19" gradientTransform="matrix(-0.64, 0.77, 0.77, 0.64, 1303.3, -618.46)" gradientUnits="userSpaceOnUse"><stop offset="0.02" stop-color="#1a1a1a"/><stop offset="0.19" stop-color="#333"/><stop offset="0.49" stop-color="#666"/><stop offset="0.78" stop-color="#383838"/><stop offset="1" stop-color="#1a1a1a"/></linearGradient><linearGradient id="linear-gradient-6" x1="1030.51" y1="-22.94" x2="1075.25" y2="-22.94" gradientTransform="matrix(-0.64, 0.77, 0.77, 0.64, 1303.3, -618.46)" gradientUnits="userSpaceOnUse"><stop offset="0" stop-color="#f15a24"/><stop offset="0.67" stop-color="#d2392a"/><stop offset="1" stop-color="#c1272d"/></linearGradient><linearGradient id="linear-gradient-7" x1="844.73" y1="-22.94" x2="889.46" y2="-22.94" gradientTransform="matrix(0.64, -0.77, 0.77, 0.64, 8.36, 937.08)" xlink:href="#linear-gradient-6"/><linearGradient id="linear-gradient-8" x1="1061.85" y1="-83.55" x2="1149.71" y2="-83.55" gradientTransform="matrix(-0.64, 0.77, 0.77, 0.64, 1303.3, -618.46)" gradientUnits="userSpaceOnUse"><stop offset="0.02" stop-color="#b3b3b3"/><stop offset="0.17" stop-color="#c8c8c8"/><stop offset="0.37" stop-color="#dedede"/><stop offset="0.5" stop-color="#e6e6e6"/><stop offset="0.63" stop-color="#e1e1e1"/><stop offset="0.78" stop-color="#d4d4d4"/><stop offset="0.94" stop-color="#bdbdbd"/><stop offset="1" stop-color="#b3b3b3"/></linearGradient><linearGradient id="linear-gradient-9" x1="1075.25" y1="-163.99" x2="1136.31" y2="-163.99" gradientTransform="matrix(-0.64, 0.77, 0.77, 0.64, 1303.3, -618.46)" gradientUnits="userSpaceOnUse"><stop offset="0" stop-color="#c1272d"/><stop offset="0.07" stop-color="#cd342b"/><stop offset="0.22" stop-color="#e14927"/><stop offset="0.37" stop-color="#ed5625"/><stop offset="0.51" stop-color="#f15a24"/><stop offset="0.64" stop-color="#ed5525"/><stop offset="0.79" stop-color="#e04827"/><stop offset="0.94" stop-color="#cb322b"/><stop offset="1" stop-color="#c1272d"/></linearGradient><linearGradient id="linear-gradient-10" x1="1096.41" y1="-118.62" x2="1115.15" y2="-118.62" xlink:href="#linear-gradient-9"/><linearGradient id="linear-gradient-11" x1="1106.34" y1="-118.94" x2="1116.09" y2="-118.94" gradientTransform="matrix(-0.64, 0.77, 0.77, 0.64, 1303.3, -618.46)" gradientUnits="userSpaceOnUse"><stop offset="0" stop-color="#999"/><stop offset="0.18" stop-color="#919191"/><stop offset="0.6" stop-color="#848484"/><stop offset="1" stop-color="gray"/></linearGradient><linearGradient id="linear-gradient-12" x1="1098.11" y1="-118.62" x2="1113.45" y2="-118.62" gradientTransform="matrix(-0.64, 0.77, 0.77, 0.64, 1303.3, -618.46)" gradientUnits="userSpaceOnUse"><stop offset="0" stop-color="#0071bc"/><stop offset="0.1" stop-color="#0e85c9"/><stop offset="0.24" stop-color="#1d9ad7"/><stop offset="0.38" stop-color="#26a7df"/><stop offset="0.51" stop-color="#29abe2"/><stop offset="0.63" stop-color="#26a6df"/><stop offset="0.77" stop-color="#1c99d6"/><stop offset="0.91" stop-color="#0d83c8"/><stop offset="1" stop-color="#0071bc"/></linearGradient><linearGradient id="linear-gradient-13" x1="1114.91" y1="-83.67" x2="1149.71" y2="-83.67" gradientTransform="matrix(-0.64, 0.77, 0.77, 0.64, 1303.3, -618.46)" gradientUnits="userSpaceOnUse"><stop offset="0" stop-color="gray"/><stop offset="0.14" stop-color="#737373"/><stop offset="0.44" stop-color="#5e5e5e"/><stop offset="0.73" stop-color="#515151"/><stop offset="1" stop-color="#4d4d4d"/></linearGradient><linearGradient id="linear-gradient-14" x1="1105.87" y1="-164" x2="1136.31" y2="-164" gradientTransform="matrix(-0.64, 0.77, 0.77, 0.64, 1303.3, -618.46)" gradientUnits="userSpaceOnUse"><stop offset="0" stop-color="#c1272d"/><stop offset="0.58" stop-color="#a0272d"/><stop offset="1" stop-color="#85272d"/></linearGradient><linearGradient id="linear-gradient-15" x1="1119.94" y1="-118.87" x2="1126.25" y2="-118.87" gradientTransform="matrix(-0.64, 0.77, 0.77, 0.64, 1303.3, -618.46)" gradientUnits="userSpaceOnUse"><stop offset="0" stop-color="#666"/><stop offset="0.18" stop-color="#5e5e5e"/><stop offset="0.6" stop-color="#515151"/><stop offset="1" stop-color="#4d4d4d"/></linearGradient><linearGradient id="linear-gradient-16" x1="1148.48" y1="-22.94" x2="1179.27" y2="-22.94" xlink:href="#linear-gradient-14"/></defs><g id="Layer_5" data-name="Layer 5"><g class="cls-2"><rect id="Space_back" data-name="Space back" class="cls-3" x="-171.38" y="-50.88" width="1656" height="553.09"/><g id="Stars"><polygon class="cls-4" points="277.76 77.22 275.25 74.9 275.5 78.31 272.13 78.82 274.94 80.75 273.24 83.72 276.51 82.72 277.76 85.89 279.02 82.72 282.28 83.72 280.58 80.75 283.4 78.82 280.02 78.31 280.27 74.9 277.76 77.22"/><polygon class="cls-4" points="358.02 132.92 356.52 131.53 356.67 133.57 354.64 133.88 356.33 135.04 355.31 136.82 357.27 136.22 358.02 138.12 358.77 136.22 360.74 136.82 359.71 135.04 361.4 133.88 359.38 133.57 359.53 131.53 358.02 132.92"/><polygon class="cls-4" points="530.75 49.23 528.24 46.91 528.49 50.32 525.12 50.84 527.93 52.77 526.23 55.73 529.5 54.73 530.75 57.9 532.01 54.73 535.27 55.73 533.57 52.77 536.39 50.84 533.01 50.32 533.26 46.91 530.75 49.23"/><polygon class="cls-4" points="492.86 120.09 490.35 117.77 490.6 121.17 487.23 121.69 490.04 123.62 488.34 126.58 491.61 125.58 492.86 128.76 494.12 125.58 497.38 126.58 495.68 123.62 498.5 121.69 495.12 121.17 495.37 117.77 492.86 120.09"/><polygon class="cls-4" points="437.78 117.59 436.52 116.43 436.65 118.13 434.96 118.39 436.37 119.36 435.52 120.84 437.15 120.34 437.78 121.92 438.4 120.34 440.04 120.84 439.19 119.36 440.59 118.39 438.91 118.13 439.03 116.43 437.78 117.59"/><polygon class="cls-4" points="801.2 49.23 798.7 46.91 798.94 50.32 795.57 50.84 798.38 52.77 796.68 55.73 799.95 54.73 801.2 57.9 802.46 54.73 805.72 55.73 804.02 52.77 806.84 50.84 803.46 50.32 803.71 46.91 801.2 49.23"/><polygon class="cls-4" points="709.98 65.86 708.72 64.7 708.85 66.4 707.16 66.66 708.57 67.62 707.72 69.1 709.35 68.6 709.98 70.19 710.6 68.6 712.24 69.1 711.39 67.62 712.8 66.66 711.11 66.4 711.23 64.7 709.98 65.86"/></g><g id="Stars-2" data-name="Stars"><polygon class="cls-4" points="1347.85 128.67 1354.12 122.88 1353.5 131.39 1361.94 132.68 1354.9 137.5 1359.15 144.91 1350.99 142.41 1347.85 150.35 1344.72 142.41 1336.55 144.91 1340.81 137.5 1333.76 132.68 1342.2 131.39 1341.58 122.88 1347.85 128.67"/><polygon class="cls-4" points="1147.2 267.92 1150.97 264.44 1150.59 269.55 1155.66 270.32 1151.43 273.22 1153.98 277.66 1149.09 276.16 1147.2 280.93 1145.32 276.16 1140.42 277.66 1142.98 273.22 1138.75 270.32 1143.81 269.55 1143.44 264.44 1147.2 267.92"/><polygon class="cls-4" points="715.38 58.7 721.65 52.9 721.03 61.42 729.47 62.71 722.42 67.53 726.68 74.94 718.51 72.44 715.38 80.38 712.24 72.44 704.08 74.94 708.33 67.53 701.29 62.71 709.73 61.42 709.11 52.9 715.38 58.7"/><polygon class="cls-4" points="810.11 235.84 816.38 230.04 815.76 238.56 824.2 239.85 817.15 244.67 821.41 252.08 813.24 249.57 810.11 257.52 806.97 249.57 798.81 252.08 803.06 244.67 796.01 239.85 804.46 238.56 803.84 230.04 810.11 235.84"/><polygon class="cls-4" points="947.82 229.59 950.96 226.69 950.65 230.95 954.87 231.6 951.34 234.01 953.47 237.71 949.39 236.46 947.82 240.43 946.25 236.46 942.17 237.71 944.3 234.01 940.77 231.6 945 230.95 944.68 226.69 947.82 229.59"/><polygon class="cls-4" points="39.25 58.7 45.52 52.9 44.9 61.42 53.34 62.71 46.3 67.53 50.55 74.94 42.39 72.44 39.25 80.38 36.12 72.44 27.95 74.94 32.21 67.53 25.16 62.71 33.6 61.42 32.98 52.9 39.25 58.7"/><polygon class="cls-4" points="267.32 100.26 270.45 97.36 270.14 101.62 274.36 102.26 270.84 104.67 272.97 108.38 268.88 107.13 267.32 111.1 265.75 107.13 261.67 108.38 263.79 104.67 260.27 102.26 264.49 101.62 264.18 97.36 267.32 100.26"/></g><g id="Stars-3" data-name="Stars"><polygon class="cls-4" points="132.22 365.44 128.46 361.96 128.83 367.07 123.77 367.85 128 370.74 125.44 375.19 130.34 373.68 132.22 378.45 134.1 373.68 139 375.19 136.45 370.74 140.68 367.85 135.61 367.07 135.99 361.96 132.22 365.44"/><polygon class="cls-4" points="564.05 156.22 557.78 150.43 558.4 158.94 549.96 160.23 557 165.06 552.75 172.46 560.91 169.96 564.05 177.9 567.18 169.96 575.35 172.46 571.1 165.06 578.14 160.23 569.7 158.94 570.32 150.43 564.05 156.22"/><polygon class="cls-4" points="469.32 333.36 463.05 327.57 463.67 336.08 455.23 337.37 462.27 342.2 458.02 349.6 466.19 347.1 469.32 355.04 472.46 347.1 480.62 349.6 476.37 342.2 483.41 337.37 474.97 336.08 475.59 327.57 469.32 333.36"/><polygon class="cls-4" points="331.61 327.12 328.47 324.22 328.78 328.48 324.56 329.12 328.08 331.53 325.96 335.24 330.04 333.99 331.61 337.96 333.17 333.99 337.26 335.24 335.13 331.53 338.65 329.12 334.43 328.48 334.74 324.22 331.61 327.12"/><polygon class="cls-4" points="1240.17 156.22 1233.9 150.43 1234.53 158.94 1226.08 160.23 1233.13 165.06 1228.87 172.46 1237.04 169.96 1240.17 177.9 1243.31 169.96 1251.47 172.46 1247.22 165.06 1254.27 160.23 1245.83 158.94 1246.45 150.43 1240.17 156.22"/><polygon class="cls-4" points="1012.11 197.78 1008.97 194.88 1009.28 199.14 1005.06 199.79 1008.59 202.2 1006.46 205.9 1010.54 204.65 1012.11 208.62 1013.68 204.65 1017.76 205.9 1015.63 202.2 1019.16 199.79 1014.93 199.14 1015.25 194.88 1012.11 197.78"/></g><g id="spacedust"><path class="cls-5" d="M428.78,573.6c-35-100.06-63-314.65,32-433.16,42.14-52.61,94-68.19,86.43-114C540-17.18,486.88-39.37,486.59-83.38c-.19-28.86,22.41-52,30.8-60.63,2.9-3,7.49-7.19,14.6-8.93,11.44-2.81,28.34,1.09,32.31,10.78,6,14.56-24.2,25.29-23.31,54.22C541.89-58.6,573.65-45,597.26-.13c21.65,41.19,33.82,103.76,18.19,138.82-22.65,50.79-85.13,2.29-120.07,53.88-30,44.31-17.71,130-4.51,176.5,11.62,41,21.89,44.28,34.68,94.52,9.19,36.08,21.61,84.84,6.88,126.31C522,619.13,496.3,650,470.89,639.18,462.64,635.68,446.56,624.47,428.78,573.6Z"/><path class="cls-5" d="M1284.63,583.66c-45.08-95.93-95-306.51-12.74-434.15,36.52-56.67,86.51-77.49,74.26-122.28-11.68-42.65-66.75-59.26-71.56-103-3.16-28.69,16.94-54.05,24.4-63.47,2.58-3.25,6.71-7.93,13.6-10.39,11.1-4,28.31-1.83,33.25,7.4,7.42,13.87-21.47,27.65-17.61,56.33,3.91,29.1,36.9,39.3,65,81.56,25.77,38.74,44.31,99.73,32.37,136.21-17.31,52.85-84.45,11-113.9,65.94-25.29,47.16-4.24,131.14,13.66,176,15.78,39.56,26.33,41.8,44.22,90.45,12.85,34.94,30.22,82.17,19.83,124.93-7.33,30.15-29.76,63.45-56.15,55.35C1324.7,641.93,1307.55,632.43,1284.63,583.66Z"/><path class="cls-5" d="M839.85,586.43c.5-106,31.47-317.49,118.76-397.14,38.76-35.37,75.29-32.58,80.88-78.26,5.31-43.52-23.4-82.27-13.58-123.82,6.44-27.24,26.08-41.44,33.37-46.72,2.52-1.82,6.39-4.26,11.31-3.5,7.92,1.21,17.78,10.56,18.1,21,.48,15.72-21.14,15.68-27.15,43.22-6.1,27.93,11,51.37,15.84,101.62,4.4,46.07-2.08,109.09-20,136.84-25.94,40.21-54.66-26.48-88.6,10.33-29.15,31.63-40.8,116.47-43,164.7-1.91,42.49,3.86,49.06.59,100.68-2.36,37.06-5.54,87.16-24.34,121.25-13.25,24-36.62,44.4-50.33,25.7C847.28,656.28,839.6,640.31,839.85,586.43Z"/><path class="cls-5" d="M754.93,433.75C721.27,333.24,696.09,118.3,792.55,1.05c42.83-52.06,94.91-67,87.92-112.86-6.66-43.72-59.44-66.59-59.15-110.61.18-28.86,23.08-51.73,31.59-60.22a30.14,30.14,0,0,1,14.71-8.74c11.48-2.66,28.33,1.46,32.16,11.2,5.77,14.64-24.52,25-24,53.92.51,29.35,32.1,43.3,55.12,88.53C952-96.27,963.36-33.54,947.27,1.31,924,51.8,862.11,2.5,826.5,53.62c-30.59,43.91-19.4,129.76-6.81,176.43,11.09,41.12,21.31,44.56,33.45,95,8.71,36.2,20.49,85.12,5.22,126.39-10.77,29.09-36.9,59.58-62.18,48.47C788,496.27,772.05,484.84,754.93,433.75Z"/><path class="cls-5" d="M-115.26,663.34c.74-138.62,46.6-415.22,175.87-519.39C118,97.7,172.09,101.35,180.36,41.6c7.87-56.91-34.64-107.59-20.1-161.93,9.53-35.62,38.61-54.2,49.41-61.1,3.72-2.39,9.46-5.57,16.75-4.59,11.72,1.59,26.32,13.82,26.79,27.5C253.93-138,221.92-138,213-102c-9,36.53,16.33,67.19,23.45,132.91,6.52,60.25-3.07,142.67-29.59,179-38.42,52.59-80.94-34.64-131.2,13.52C32.51,264.75,15.26,375.71,12,438.78c-2.83,55.57,5.72,64.16.86,131.67-3.48,48.47-8.2,114-36,158.58-19.61,31.42-54.22,58.06-74.53,33.61C-104.26,754.7-115.63,733.81-115.26,663.34Z"/></g><g id="Stars-4" data-name="Stars"><polygon class="cls-4" points="784.3 235.75 781.79 233.43 782.04 236.84 778.66 237.35 781.48 239.28 779.78 242.24 783.04 241.24 784.3 244.42 785.55 241.24 788.82 242.24 787.12 239.28 789.93 237.35 786.56 236.84 786.81 233.43 784.3 235.75"/><polygon class="cls-4" points="864.56 291.45 863.05 290.06 863.2 292.1 861.17 292.41 862.87 293.57 861.85 295.34 863.8 294.74 864.56 296.65 865.31 294.74 867.27 295.34 866.25 293.57 867.94 292.41 865.91 292.1 866.06 290.06 864.56 291.45"/><polygon class="cls-4" points="1037.29 207.76 1034.78 205.44 1035.03 208.85 1031.65 209.36 1034.47 211.29 1032.77 214.25 1036.03 213.25 1037.29 216.43 1038.54 213.25 1041.81 214.25 1040.11 211.29 1042.92 209.36 1039.55 208.85 1039.8 205.44 1037.29 207.76"/><polygon class="cls-4" points="999.4 278.62 996.89 276.3 997.14 279.7 993.76 280.22 996.58 282.15 994.88 285.11 998.14 284.11 999.4 287.29 1000.65 284.11 1003.92 285.11 1002.21 282.15 1005.03 280.22 1001.66 279.7 1001.9 276.3 999.4 278.62"/><polygon class="cls-4" points="944.31 276.12 943.06 274.96 943.18 276.66 941.49 276.92 942.9 277.88 942.05 279.36 943.68 278.86 944.31 280.45 944.94 278.86 946.57 279.36 945.72 277.88 947.13 276.92 945.44 276.66 945.56 274.96 944.31 276.12"/><polygon class="cls-4" points="1307.74 207.76 1305.23 205.44 1305.48 208.85 1302.1 209.36 1304.92 211.29 1303.22 214.25 1306.48 213.25 1307.74 216.43 1308.99 213.25 1312.26 214.25 1310.56 211.29 1313.37 209.36 1310 208.85 1310.25 205.44 1307.74 207.76"/><polygon class="cls-4" points="1216.51 224.38 1215.26 223.22 1215.38 224.93 1213.69 225.19 1215.1 226.15 1214.25 227.63 1215.88 227.13 1216.51 228.72 1217.14 227.13 1218.77 227.63 1217.92 226.15 1219.33 225.19 1217.64 224.93 1217.77 223.22 1216.51 224.38"/></g><g id="Stars-5" data-name="Stars"><polygon class="cls-4" points="168.3 211.4 165.79 209.08 166.04 212.48 162.66 213 165.48 214.93 163.78 217.89 167.04 216.89 168.3 220.07 169.55 216.89 172.82 217.89 171.12 214.93 173.94 213 170.56 212.48 170.81 209.08 168.3 211.4"/><polygon class="cls-4" points="248.56 267.09 247.05 265.7 247.2 267.75 245.18 268.06 246.87 269.21 245.85 270.99 247.81 270.39 248.56 272.3 249.31 270.39 251.27 270.99 250.25 269.21 251.94 268.06 249.91 267.75 250.06 265.7 248.56 267.09"/><polygon class="cls-4" points="421.29 183.41 418.78 181.09 419.03 184.5 415.65 185.01 418.47 186.94 416.77 189.9 420.03 188.9 421.29 192.08 422.54 188.9 425.81 189.9 424.11 186.94 426.92 185.01 423.55 184.5 423.8 181.09 421.29 183.41"/><polygon class="cls-4" points="383.4 254.26 380.89 251.94 381.14 255.35 377.76 255.87 380.58 257.8 378.88 260.76 382.14 259.76 383.4 262.94 384.65 259.76 387.92 260.76 386.21 257.8 389.03 255.87 385.66 255.35 385.9 251.94 383.4 254.26"/><polygon class="cls-4" points="328.31 251.76 327.06 250.6 327.18 252.31 325.49 252.57 326.9 253.53 326.05 255.01 327.68 254.51 328.31 256.1 328.94 254.51 330.57 255.01 329.72 253.53 331.13 252.57 329.44 252.31 329.56 250.6 328.31 251.76"/><polygon class="cls-4" points="691.74 183.41 689.23 181.09 689.48 184.5 686.1 185.01 688.92 186.94 687.22 189.9 690.48 188.9 691.74 192.08 692.99 188.9 696.26 189.9 694.56 186.94 697.38 185.01 694 184.5 694.25 181.09 691.74 183.41"/><polygon class="cls-4" points="600.51 200.03 599.26 198.87 599.38 200.57 597.69 200.83 599.1 201.8 598.25 203.28 599.88 202.78 600.51 204.37 601.14 202.78 602.77 203.28 601.92 201.8 603.33 200.83 601.64 200.57 601.77 198.87 600.51 200.03"/></g><g id="Planet3"><circle class="cls-6" cx="1292.95" cy="303.25" r="105.5"/><g class="cls-7"><path class="cls-8" d="M1289.32,368.71c-4.93-8.78-11.61-8.15-12.84-15.09-2.48-14.05,21.45-36.73,47.87-40.11,27.46-3.51,40.21,16,56.4,7.75,10.76-5.51,14.12-18.73,17.17-28.78a104.79,104.79,0,0,0-13.3-41.43c-2.93,20.36,1.27,30.3-7.94,39-18.53,17.47-49.66-9.39-82.6,6.87-8.8,4.35-19.66,20.44-41,52.43-10,15-18,27.51-24.58,37.44a105.76,105.76,0,0,0,56.85,21.7C1289.05,396.56,1296.73,381.9,1289.32,368.71Z"/><path class="cls-9" d="M1306.09,258c15.65.6,22,7.31,33.69,2.3,13.65-5.86,16.63-20,22-37a105.54,105.54,0,0,0-46.49-23.14c-4.64,18.9-26.22,39.77-45.15,51.9-24.28,15.54-31.23,8.38-51.49,23.67-16.87,12.74-24.89,27.4-30.83,36.88a104.77,104.77,0,0,0,10.57,37.49C1216.1,302.74,1263.34,256.33,1306.09,258Z"/></g></g><g id="Planet2"><circle class="cls-10" cx="366.17" cy="66.64" r="47.47"/><g class="cls-7"><path class="cls-11" d="M364.54,96.1c-2.22-3.95-5.23-3.67-5.78-6.79-1.11-6.33,9.65-16.53,21.54-18,12.36-1.58,18.09,7.22,25.38,3.49,4.84-2.48,6.35-8.43,7.73-13a47.24,47.24,0,0,0-6-18.65c-1.32,9.17.57,13.64-3.57,17.55-8.34,7.86-22.35-4.23-37.17,3.09-4,2-8.85,9.2-18.46,23.59-4.52,6.76-8.12,12.38-11.06,16.85A47.57,47.57,0,0,0,362.74,114C364.42,108.63,367.87,102,364.54,96.1Z"/><path class="cls-12" d="M372.08,46.28c7.05.27,9.91,3.29,15.17,1,6.14-2.64,7.48-9,9.9-16.65a47.4,47.4,0,0,0-20.92-10.41c-2.09,8.5-11.79,17.89-20.31,23.35-10.93,7-14.06,3.77-23.17,10.65-7.59,5.73-11.2,12.33-13.87,16.59a46.94,46.94,0,0,0,4.75,16.87C331.59,66.41,352.85,45.53,372.08,46.28Z"/></g></g><g id="Planet1"><circle class="cls-13" cx="1032.27" cy="17.31" r="192.42"/><g class="cls-7"><path class="cls-14" d="M964.22,115.64c.71-18.35-10.28-23.75-5.57-35.7,9.54-24.22,68.35-36.66,112.66-16.73,46,20.71,47.23,63.26,80.32,65.81,22,1.7,39.8-15.66,54.13-28.37a191.61,191.61,0,0,0,18.82-77.11c-24,28.87-26.92,48.33-49.53,53.05-45.46,9.51-68.26-61.94-135-68-17.83-1.63-50.06,13-113.78,42.39C896.36,64.74,872,76.52,852.38,85.73a193,193,0,0,0,67.71,87.93C937.26,158.69,963.16,143.21,964.22,115.64Z"/></g></g><g id="blueshade3" class="cls-15"><path class="cls-16" d="M359.61,96.23c-7,9.56-12.06,14.44-15.05,12.25-.53-4.59-2.42-11.5-3.39-17.57.32-2.62.36-2.59,3-5,2.39-1.92,7.37-6.23,12.06-7.29,4.35-.8,6-.8,6.78,2.37C363.57,84,363.21,90.1,359.61,96.23Z"/></g><g id="blueshade2" class="cls-15"><path class="cls-16" d="M403.86,67.81c3.25,5.18,4.61,9.58,2.92,14-2.37,2.29-6.16,7.07-9.35,10.42-1.22.54-1.2.48-1.82-1.88a40.83,40.83,0,0,1-1.1-12.13c.51-5,.85-7.09,2.57-9.13C398.65,67.34,401.59,65.6,403.86,67.81Z"/></g><g id="blueshade1" class="cls-15"><path class="cls-16" d="M361.72,37.26c14,9.45,21.25,16.61,18.29,22-6.53,1.84-16.28,6.39-24.88,9.26-3.76,0-3.72,0-7.23-3.83-2.87-3.49-9.29-10.7-11-18.12-1.37-6.93-1.47-9.67,3-11.56C344,33.4,352.79,32.69,361.72,37.26Z"/></g><path id="TransitionFlame" class="cls-17" d="M1372.88,382.67c-17.39-17.26-96-1.42-111.53-16.95-6.14-6.13-84.5,34-93.79,15.15-8.65-18.25-58.6,26.94-73.85-11.89-15.87-41.66-126.46,7.12-132.25-12.78-5.84-20.73-129.63,11.73-153.53,4.52-10.89-3.28-92.82-15.56-102.1-43.45h0c-.08-1-.19-1.89-.32-2.8l0-.17c-.14-.91-.31-1.81-.51-2.68h0c-.11-.48-.23-.94-.36-1.41,0-.14-.07-.28-.11-.43-.13-.46-.27-.92-.42-1.36,0-.08-.05-.14-.07-.21a40.68,40.68,0,0,0-1.71-4.31l-.07-.15c-3.35-7.14-8.46-13-13.27-19.19L678.8,267.37c-8.51-21.69-24.63-25.62-43.27-56.79-11.93-10-30.94-7.29-39.84-4.37-9.33,2.39-19.12,25.54-14.92,43.9,19.89,37.71,56.93,40.41,58.11,84.25.87,31.92-91.35,45.63-103,49.12-23.91,7.21-135-33.4-152.53-13.27-13.62,15.61-128.3-49-144.17-7.31-15.25,38.84-69-21.07-77.65-2.82-9.28,18.81-65.72-6.55-69.17,1.41-3.32,7.55-145,8.15-162.35,25.41-16.72,16.37-9.68,36.05-37.74,46.59,27.53-8.18,273.51,56.1,304.27,28s154.77,22.07,175-5.84c21.05-29.18,107.89,5.42,116.48-4.87S590,463.54,594.73,466c3.75,3.14,64.52,31.65,92.61,6,4-3.66,7.3-7,10.06-10h0c29.6,19.55,71-21.6,74.07-24.2,4.76-2.41,93.17-3.33,101.64,7.06s93.31-32,114.36-2.82c20.21,27.9,142.9-22.32,173.64,5.65s281.58-27.07,309.1-18.88C1442.15,418.19,1389.59,399,1372.88,382.67ZM679.77,269.81l-.24-.55Zm6.29,10.87Zm-2.29-3.38-.23-.36Zm-1.06-1.73c-.08-.13-.16-.26-.23-.39C682.55,275.31,682.63,275.44,682.71,275.57Zm-1.21-2.13,0-.07Zm-.88-1.75c-.09-.18-.17-.36-.25-.53C680.45,271.33,680.53,271.51,680.62,271.69Z"/><g id="Rocket_Ship"><path id="boosterlft" class="cls-18" d="M598.58,221a39.71,39.71,0,0,0,8-9.56c-6.29-8.51-12.47-16.89-18-24.74L571,207.8C579.71,211.78,589.07,216.34,598.58,221Z"/><path d="M588.57,186.68l1.5,2.12c-1.4,2.47-6.16,12.54.11,26.36a16.64,16.64,0,0,1,.81,2.12c-6.88-3.34-13.61-6.57-20-9.48Z"/><path id="boosterrght" class="cls-19" d="M577.91,245.81a39.71,39.71,0,0,0,8-9.56c-6.29-8.51-12.47-16.89-18-24.74l-17.58,21.12C559,236.61,568.4,241.17,577.91,245.81Z"/><path d="M558.58,222.71l10.76-9.16.89,1.26-1.63,8.06c-2.18,14.66-.21,16.15.84,18.82-6.57-3.19-13-6.27-19.12-9.06Z"/><path id="boostermid" class="cls-20" d="M589.17,234.75a43.79,43.79,0,0,0,8.76-10.52c-6.92-9.36-13.72-18.58-19.76-27.22l-19.34,23.23C568.42,224.62,578.71,229.64,589.17,234.75Z"/><path class="cls-21" d="M572.28,204.08l7.07,1.57s-10.94,12.74-2.57,23.07c-3.64-1.73-14.47-6.89-17.95-8.48Z"/><path id="left_fin" data-name="left fin" class="cls-22" d="M573.61,173.16s5.62-.2,11.36-7.87-1.27-15.4-1.27-15.4,9.82-8.33,23.19-4.78,39.38,36.57,40.28,49l-4.66,5.59S601.14,162.79,598.7,170c0,0,.68,8.41-13.55,12.81Z"/><path id="right_fin" data-name="right fin" class="cls-23" d="M535.68,218.73s.82,5.55-5.68,12.59-15.37,1.55-15.37,1.55-6.42,11.17-.5,23.67,43.1,32.09,55.45,30.73l4.65-5.59s-43.76-34-37.15-37.7c0,0,8.4-.86,10.14-15.64Z"/><path id="shipbody" class="cls-24" d="M552.21,234.88a175.4,175.4,0,0,0,39.15-47c-17.13-37.38-45.36-60.94-82.44-68.54l-39.07,46.93C484.05,201.33,512.34,224.81,552.21,234.88Z"/><path id="nosecone" class="cls-25" d="M469.85,166.24a243.72,243.72,0,0,0,39.07-46.93c-17.71-4.43-39.64-6.51-60.19-10.38C456.26,128.44,462.28,149.63,469.85,166.24Z"/><circle id="window_frame" data-name="window frame" class="cls-26" cx="504.66" cy="155.49" r="9.37"/><path class="cls-27" d="M496.75,150.35c.12-.14.24-.28.37-.41a9.37,9.37,0,0,0,12.09,13.75,9.2,9.2,0,0,1-12.46-13.34Z"/><circle id="window" class="cls-28" cx="504.66" cy="155.49" r="7.67"/><path class="cls-4" d="M502.21,162.75a7.61,7.61,0,0,0,2.25.4"/><path class="cls-4" d="M498.73,150.64a6.68,6.68,0,0,0-.68,1"/><path class="cls-4" d="M498.05,151.63a6.68,6.68,0,0,1,.68-1l5.73,12.51a7.61,7.61,0,0,1-2.25-.4Z"/><path class="cls-29" d="M508.65,150.7c-3.16-2.62-7.6-2.51-10.11.19.08-.1.15-.21.23-.3a7.67,7.67,0,0,1,11.79,9.81c-.08.1-.17.18-.26.28C512.5,157.72,511.81,153.33,508.65,150.7Z"/><path id="right_finshadow" data-name="right finshadow" class="cls-30" d="M535.68,218.73s.82,5.55-5.68,12.59-15.37,1.55-15.37,1.55-6.42,11.17-.5,23.67,43.1,32.09,55.45,30.73l4.65-5.59s-43.76-34-37.15-37.7c0,0,8.4-.86,10.14-15.64Z"/><path id="bodyshadow" class="cls-31" d="M469.85,166.24a141.73,141.73,0,0,1,14.83-15.11q1.36,1.47,2.76,2.91a17.28,17.28,0,0,0,19.16,18.63c19.08,17.27,39.53,32.45,61.23,47.28a177.9,177.9,0,0,1-15.62,14.93C512.34,224.81,484.05,201.33,469.85,166.24Z"/><path id="coneshadow" class="cls-32" d="M484.69,151.13q-7.08,7.86-14.84,15.11c-7.54-16.56-13.55-37.67-21.05-57.14A471.23,471.23,0,0,0,484.69,151.13Z"/><path id="windowshadow" class="cls-33" d="M485.14,157.66s2.85,16.94,20.55,17.1C505.69,174.76,487.35,178,485.14,157.66Z"/><path class="cls-34" d="M514.13,256.54c-5.92-12.5.5-23.67.5-23.67s5.65,3.49,11.24,1.32a56.64,56.64,0,0,0,15.62,7.52,8.63,8.63,0,0,1-4.41,2.27c-6.61,3.7,37.15,37.7,37.15,37.7l-4.65,5.59C557.23,288.63,520.05,269.05,514.13,256.54Z"/></g><path id="flame" class="cls-35" d="M617.78,230.54c-9.1.26-19.59,10.25-19.66,19.66,0,5.85,3.94,10.42,10.25,16.24,8.4,7.74,38.45,35.45,46.16,29.06C663.88,287.74,640.11,229.91,617.78,230.54Z"/></g></g></svg>