<svg id="ShipnFlames" xmlns="http://www.w3.org/2000/svg" xmlns:xlink="http://www.w3.org/1999/xlink" viewBox="0 0 1332 432"><defs><style>.cls-1{fill:url(#linear-gradient);}.cls-2{fill:url(#linear-gradient-2);}.cls-3{fill:url(#linear-gradient-3);}.cls-4{fill:url(#linear-gradient-4);}.cls-5{fill:url(#linear-gradient-5);}.cls-6{fill:url(#linear-gradient-6);}.cls-7{fill:#1a1a1a;}.cls-8{fill:url(#linear-gradient-7);}.cls-9{fill:url(#linear-gradient-8);}.cls-10{fill:url(#linear-gradient-9);}.cls-11{fill:url(#linear-gradient-10);}.cls-12{fill:url(#linear-gradient-11);}.cls-13{fill:url(#linear-gradient-12);}.cls-14{fill:url(#linear-gradient-13);}.cls-15{fill:#fff;}.cls-16{fill:#0071bc;}.cls-17{fill:#600;}.cls-18{fill:url(#linear-gradient-14);}.cls-19{fill:url(#linear-gradient-15);}.cls-20{fill:url(#linear-gradient-16);}.cls-21{fill:url(#linear-gradient-17);}</style><linearGradient id="linear-gradient" x1="396.49" y1="-600.69" x2="536.16" y2="-600.69" gradientTransform="matrix(0, -1, -1, 0, 341.17, 681.2)" gradientUnits="userSpaceOnUse"><stop offset="0" stop-color="#f15a24"/><stop offset="0.1" stop-color="#f36d22"/><stop offset="0.24" stop-color="#f58220"/><stop offset="0.38" stop-color="#f78f1e"/><stop offset="0.51" stop-color="#f7931e"/><stop offset="0.63" stop-color="#f78e1e"/><stop offset="0.77" stop-color="#f58120"/><stop offset="0.91" stop-color="#f36b22"/><stop offset="1" stop-color="#f15a24"/></linearGradient><linearGradient id="linear-gradient-2" x1="817.61" y1="261.71" x2="817.61" y2="168" gradientUnits="userSpaceOnUse"><stop offset="0" stop-color="#f15a24"/><stop offset="0.02" stop-color="#f26c24"/><stop offset="0.06" stop-color="#f58e23"/><stop offset="0.1" stop-color="#f7ac22"/><stop offset="0.15" stop-color="#f9c422"/><stop offset="0.2" stop-color="#fad721"/><stop offset="0.26" stop-color="#fbe421"/><stop offset="0.34" stop-color="#fcec21"/><stop offset="0.51" stop-color="#fcee21"/><stop offset="0.66" stop-color="#fcec21"/><stop offset="0.74" stop-color="#fbe421"/><stop offset="0.8" stop-color="#fad721"/><stop offset="0.86" stop-color="#f9c422"/><stop offset="0.9" stop-color="#f7ac22"/><stop offset="0.95" stop-color="#f58e23"/><stop offset="0.98" stop-color="#f26b24"/><stop offset="1" stop-color="#f15a24"/></linearGradient><linearGradient id="linear-gradient-3" x1="703.61" y1="240.64" x2="703.61" y2="189.07" gradientUnits="userSpaceOnUse"><stop offset="0" stop-color="#fcee21"/><stop offset="0.11" stop-color="#f9ee23"/><stop offset="0.18" stop-color="#f1ef2b"/><stop offset="0.24" stop-color="#e3f037"/><stop offset="0.29" stop-color="#cef149"/><stop offset="0.34" stop-color="#b4f361"/><stop offset="0.38" stop-color="#93f57d"/><stop offset="0.42" stop-color="#6cf8a0"/><stop offset="0.46" stop-color="#3ffbc7"/><stop offset="0.5" stop-color="#0efef3"/><stop offset="0.51" stop-color="aqua"/><stop offset="0.51" stop-color="#06fff9"/><stop offset="0.53" stop-color="#34fbd1"/><stop offset="0.55" stop-color="#5ff9ab"/><stop offset="0.58" stop-color="#85f68a"/><stop offset="0.6" stop-color="#a5f46d"/><stop offset="0.63" stop-color="#c1f255"/><stop offset="0.66" stop-color="#d7f142"/><stop offset="0.7" stop-color="#e8ef33"/><stop offset="0.75" stop-color="#f3ef29"/><stop offset="0.82" stop-color="#faee23"/><stop offset="1" stop-color="#fcee21"/></linearGradient><linearGradient id="linear-gradient-4" x1="1270.61" y1="-149.07" x2="1348.01" y2="-149.07" gradientTransform="translate(341.17 -1135.8) rotate(90)" gradientUnits="userSpaceOnUse"><stop offset="0.02"/><stop offset="0.28" stop-color="#343434"/><stop offset="0.43" stop-color="#4d4d4d"/><stop offset="0.44" stop-color="#484848"/><stop offset="0.52" stop-color="#2e2e2e"/><stop offset="0.61" stop-color="#1a1a1a"/><stop offset="0.7" stop-color="#0b0b0b"/><stop offset="0.81" stop-color="#030303"/><stop offset="1"/></linearGradient><linearGradient id="linear-gradient-5" x1="1361.61" y1="-149.07" x2="1439.01" y2="-149.07" gradientTransform="translate(341.17 -1135.8) rotate(90)" gradientUnits="userSpaceOnUse"><stop offset="0.02"/><stop offset="0.14" stop-color="#040404"/><stop offset="0.25" stop-color="#0f0f0f"/><stop offset="0.36" stop-color="#222"/><stop offset="0.47" stop-color="#3c3c3c"/><stop offset="0.53" stop-color="#4d4d4d"/><stop offset="0.84" stop-color="#161616"/><stop offset="1"/></linearGradient><linearGradient id="linear-gradient-6" x1="1311.75" y1="-149.41" x2="1396.89" y2="-149.41" gradientTransform="translate(341.17 -1135.8) rotate(90)" gradientUnits="userSpaceOnUse"><stop offset="0.02" stop-color="#1a1a1a"/><stop offset="0.19" stop-color="#333"/><stop offset="0.49" stop-color="#666"/><stop offset="0.78" stop-color="#383838"/><stop offset="1" stop-color="#1a1a1a"/></linearGradient><linearGradient id="linear-gradient-7" x1="1142.32" y1="-138.29" x2="1268.33" y2="-138.29" gradientTransform="translate(341.17 -1135.8) rotate(90)" gradientUnits="userSpaceOnUse"><stop offset="0" stop-color="#f15a24"/><stop offset="0.67" stop-color="#d2392a"/><stop offset="1" stop-color="#c1272d"/></linearGradient><linearGradient id="linear-gradient-8" x1="400.69" y1="-138.29" x2="526.69" y2="-138.29" gradientTransform="matrix(0, -1, -1, 0, 341.17, 826.2)" xlink:href="#linear-gradient-7"/><linearGradient id="linear-gradient-9" x1="1230.56" y1="32.42" x2="1478.06" y2="32.42" gradientTransform="translate(341.17 -1135.8) rotate(90)" gradientUnits="userSpaceOnUse"><stop offset="0.02" stop-color="#b3b3b3"/><stop offset="0.17" stop-color="#c8c8c8"/><stop offset="0.37" stop-color="#dedede"/><stop offset="0.5" stop-color="#e6e6e6"/><stop offset="0.63" stop-color="#e1e1e1"/><stop offset="0.78" stop-color="#d4d4d4"/><stop offset="0.94" stop-color="#bdbdbd"/><stop offset="1" stop-color="#b3b3b3"/></linearGradient><linearGradient id="linear-gradient-10" x1="1268.32" y1="259" x2="1440.32" y2="259" gradientTransform="translate(341.17 -1135.8) rotate(90)" gradientUnits="userSpaceOnUse"><stop offset="0" stop-color="#c1272d"/><stop offset="0.07" stop-color="#cd342b"/><stop offset="0.22" stop-color="#e14927"/><stop offset="0.37" stop-color="#ed5625"/><stop offset="0.51" stop-color="#f15a24"/><stop offset="0.64" stop-color="#ed5525"/><stop offset="0.79" stop-color="#e04827"/><stop offset="0.94" stop-color="#cb322b"/><stop offset="1" stop-color="#c1272d"/></linearGradient><linearGradient id="linear-gradient-11" x1="1327.92" y1="131.21" x2="1380.72" y2="131.21" xlink:href="#linear-gradient-10"/><linearGradient id="linear-gradient-12" x1="1355.89" y1="132.1" x2="1383.35" y2="132.1" gradientTransform="translate(341.17 -1135.8) rotate(90)" gradientUnits="userSpaceOnUse"><stop offset="0" stop-color="#999"/><stop offset="0.18" stop-color="#919191"/><stop offset="0.6" stop-color="#848484"/><stop offset="1" stop-color="gray"/></linearGradient><linearGradient id="linear-gradient-13" x1="1332.72" y1="131.21" x2="1375.92" y2="131.21" gradientTransform="translate(341.17 -1135.8) rotate(90)" gradientUnits="userSpaceOnUse"><stop offset="0" stop-color="#0071bc"/><stop offset="0.1" stop-color="#0e85c9"/><stop offset="0.24" stop-color="#1d9ad7"/><stop offset="0.38" stop-color="#26a7df"/><stop offset="0.51" stop-color="#29abe2"/><stop offset="0.63" stop-color="#26a6df"/><stop offset="0.77" stop-color="#1c99d6"/><stop offset="0.91" stop-color="#0d83c8"/><stop offset="1" stop-color="#0071bc"/></linearGradient><linearGradient id="linear-gradient-14" x1="1380.02" y1="32.77" x2="1478.06" y2="32.77" gradientTransform="translate(341.17 -1135.8) rotate(90)" gradientUnits="userSpaceOnUse"><stop offset="0" stop-color="gray"/><stop offset="0.14" stop-color="#737373"/><stop offset="0.44" stop-color="#5e5e5e"/><stop offset="0.73" stop-color="#515151"/><stop offset="1" stop-color="#4d4d4d"/></linearGradient><linearGradient id="linear-gradient-15" x1="1354.57" y1="259.03" x2="1440.32" y2="259.03" gradientTransform="translate(341.17 -1135.8) rotate(90)" gradientUnits="userSpaceOnUse"><stop offset="0" stop-color="#c1272d"/><stop offset="0.58" stop-color="#a0272d"/><stop offset="1" stop-color="#85272d"/></linearGradient><linearGradient id="linear-gradient-16" x1="1394.2" y1="131.92" x2="1411.97" y2="131.92" gradientTransform="translate(341.17 -1135.8) rotate(90)" gradientUnits="userSpaceOnUse"><stop offset="0" stop-color="#666"/><stop offset="0.18" stop-color="#5e5e5e"/><stop offset="0.6" stop-color="#515151"/><stop offset="1" stop-color="#4d4d4d"/></linearGradient><linearGradient id="linear-gradient-17" x1="1474.58" y1="-138.29" x2="1561.31" y2="-138.29" xlink:href="#linear-gradient-15"/></defs><path id="OuterFlame" class="cls-1" d="M1319.4,214.49c-43.33,2.32-95.15,15.13-143.32,28.21-48.72,13.32-93.8,26.9-136.39,36.58C953.62,298.16,641.55,263,574.81,246.59c-14-15.72-14-40.49,0-56.21,66.75-16.4,378.82-59.56,464.84-40.64,42.61,9.62,87.7,23.21,136.43,36.53C1224.25,199.36,1276.07,212.17,1319.4,214.49Z"/><path id="MiddleFlame" class="cls-2" d="M1070.91,214.6c-29.07,1.55-63.84,10.15-96.16,18.92-32.68,8.94-62.93,18-91.5,24.55-57.75,12.66-267.12-10.93-311.89-21.94a28.74,28.74,0,0,1,0-37.71c44.78-11,254.15-40,311.86-27.26,28.59,6.45,58.84,15.57,91.53,24.51C1007.07,204.45,1041.84,213,1070.91,214.6Z"/><path id="InnerFlame" class="cls-3" d="M843,214.71c-16,.86-35.13,5.59-52.91,10.42-18,4.92-34.63,9.93-50.36,13.5-31.78,7-147-6-171.63-12.07a15.82,15.82,0,0,1,0-20.75c24.64-6.05,139.86-22,171.62-15,15.73,3.55,32.38,8.57,50.37,13.48C807.87,209.13,827,213.86,843,214.71Z"/><g id="Rocket_Ship"><path id="boosterlft" class="cls-4" d="M531.29,191a112.09,112.09,0,0,0,0-35.07c-28.95-7.08-57.43-14.08-83.48-21.17v77.4C473.85,205.11,502.34,198.12,531.29,191Z"/><path d="M447.81,134.81c2.33.64,4.69,1.27,7.06,1.9,1.41,7.85,9.26,38.23,47.74,56.86a44.49,44.49,0,0,1,5.58,3.14c-20.92,5.16-41.3,10.3-60.38,15.5Z"/><path id="boosterrght" class="cls-5" d="M531.29,282a112.09,112.09,0,0,0,0-35.07c-28.95-7.08-57.43-14.08-83.48-21.17v77.4C473.85,296.11,502.34,289.12,531.29,282Z"/><path d="M447.81,266.87l6.78-39.23,4.2,1.12,11,20.4c21.71,35.65,28.64,35.33,35.73,39.22-20,4.94-39.44,9.86-57.71,14.84Z"/><path id="boostermid" class="cls-6" d="M535.73,237.79a123.5,123.5,0,0,0,0-38.57c-31.84-7.79-63.18-15.48-91.83-23.28v85.14C472.55,253.28,503.88,245.58,535.73,237.79Z"/><path class="cls-7" d="M443.9,201.84,462,192.51s-.71,47.29,36,54.57c-11,2.81-43.73,11.17-54.13,14Z"/><path id="left_fin" data-name="left fin" class="cls-8" d="M391.06,132.51S402.85,122,401.46,95,371,64,371,64s6.24-35.74,41.6-52.14S563.7,20,588,45.22V65.73S432,60.46,439.6,80.38c0,0,16.64,17-6.24,52.14h-42.3Z"/><path id="right_fin" data-name="right fin" class="cls-9" d="M391.06,299.51s11.79,10.55,10.4,37.5S371,368.06,371,368.06s6.24,35.74,41.6,52.14S563.7,412,588,386.8V366.29s-156,5.27-148.36-14.65c0,0,16.64-17-6.24-52.14h-42.3Z"/><path id="shipbody" class="cls-10" d="M456,304.68a494,494,0,0,0,0-172.35c-104.46-50.06-208-50.19-302,.18v172C247.94,354.87,351.49,354.74,456,304.68Z"/><path id="nosecone" class="cls-11" d="M154,304.51a686.57,686.57,0,0,0,0-172c-46.32,22.32-97.53,57.34-149,86C56.43,247.17,107.64,282.18,154,304.51Z"/><circle id="window_frame" data-name="window frame" class="cls-12" cx="209.96" cy="218.51" r="26.4"/><path class="cls-13" d="M183.56,221.64c0-.52,0-1,.05-1.56a26.4,26.4,0,0,0,51,8,25.91,25.91,0,0,1-51-6.42Z"/><circle id="window" class="cls-14" cx="209.96" cy="218.51" r="21.6"/><path class="cls-15" d="M217.74,238.64a21.69,21.69,0,0,0,5.58-3.18"/><path class="cls-15" d="M188.37,218.68a20.8,20.8,0,0,0,.31,3.37"/><path class="cls-15" d="M188.67,222.06a22,22,0,0,1-.31-3.37l34.95,16.78a21.52,21.52,0,0,1-5.58,3.18Z"/><path class="cls-16" d="M210,201c-11.57,0-21,8.25-21.55,18.61,0-.35,0-.7,0-1.06a21.6,21.6,0,1,1,43.2,0c0,.36,0,.71-.05,1.06C231,209.21,221.53,201,210,201Z"/><path id="right_finshadow" data-name="right finshadow" class="cls-17" d="M391.06,299.51s11.79,10.55,10.4,37.5S371,368.06,371,368.06s6.24,35.74,41.6,52.14S563.7,412,588,386.8V366.29s-156,5.27-148.36-14.65c0,0,16.64-17-6.24-52.14h-42.3Z"/><path id="bodyshadow" class="cls-18" d="M154,304.51c0-21.64,1.87-37.42,4.87-59.42,3.75.47,7.48.91,11.22,1.33a48.67,48.67,0,0,0,75,5.78c72.42,3,144-1,217.74-8a497.06,497.06,0,0,1-6.9,60.47C351.49,354.74,247.94,354.87,154,304.51Z"/><path id="coneshadow" class="cls-19" d="M158.85,245.07c-.77,19.85-2.38,39.7-4.87,59.44C107.8,282.25,56.75,247.38,5.43,218.76A1331.35,1331.35,0,0,0,158.85,245.07Z"/><path id="windowshadow" class="cls-20" d="M171.6,258.39s36.71,31.53,75.29,0C246.9,258.39,213,298.39,171.6,258.39Z"/><path class="cls-21" d="M412.56,420.2C377.2,403.79,371,368.06,371,368.06s18.55-2.63,26.74-17.4c8.63-.63,25.56-3,47.35-11.89-1.3,8.64-5.46,12.88-5.46,12.88C432,371.57,588,366.3,588,366.3v20.5C563.69,412,447.91,436.61,412.56,420.2Z"/></g></svg>