<svg id="ShipnFlames" xmlns="http://www.w3.org/2000/svg" xmlns:xlink="http://www.w3.org/1999/xlink" viewBox="0 0 583 418.99"><defs><style>.cls-1{fill:url(#linear-gradient);}.cls-2{fill:url(#linear-gradient-2);}.cls-3{fill:url(#linear-gradient-3);}.cls-4{fill:#1a1a1a;}.cls-5{fill:url(#linear-gradient-4);}.cls-6{fill:url(#linear-gradient-5);}.cls-7{fill:url(#linear-gradient-6);}.cls-8{fill:url(#linear-gradient-7);}.cls-9{fill:url(#linear-gradient-8);}.cls-10{fill:url(#linear-gradient-9);}.cls-11{fill:url(#linear-gradient-10);}.cls-12{fill:#fff;}.cls-13{fill:#0071bc;}.cls-14{fill:#600;}.cls-15{fill:url(#linear-gradient-11);}.cls-16{fill:url(#linear-gradient-12);}.cls-17{fill:url(#linear-gradient-13);}.cls-18{fill:url(#linear-gradient-14);}</style><linearGradient id="linear-gradient" x1="1270.61" y1="-149.07" x2="1348.01" y2="-149.07" gradientTransform="translate(341.17 -1135.8) rotate(90)" gradientUnits="userSpaceOnUse"><stop offset="0.02"/><stop offset="0.28" stop-color="#343434"/><stop offset="0.43" stop-color="#4d4d4d"/><stop offset="0.44" stop-color="#484848"/><stop offset="0.52" stop-color="#2e2e2e"/><stop offset="0.61" stop-color="#1a1a1a"/><stop offset="0.7" stop-color="#0b0b0b"/><stop offset="0.81" stop-color="#030303"/><stop offset="1"/></linearGradient><linearGradient id="linear-gradient-2" x1="1361.61" y1="-149.07" x2="1439.01" y2="-149.07" gradientTransform="translate(341.17 -1135.8) rotate(90)" gradientUnits="userSpaceOnUse"><stop offset="0.02"/><stop offset="0.14" stop-color="#040404"/><stop offset="0.25" stop-color="#0f0f0f"/><stop offset="0.36" stop-color="#222"/><stop offset="0.47" stop-color="#3c3c3c"/><stop offset="0.53" stop-color="#4d4d4d"/><stop offset="0.84" stop-color="#161616"/><stop offset="1"/></linearGradient><linearGradient id="linear-gradient-3" x1="1311.75" y1="-149.41" x2="1396.89" y2="-149.41" gradientTransform="translate(341.17 -1135.8) rotate(90)" gradientUnits="userSpaceOnUse"><stop offset="0.02" stop-color="#1a1a1a"/><stop offset="0.19" stop-color="#333"/><stop offset="0.49" stop-color="#666"/><stop offset="0.78" stop-color="#383838"/><stop offset="1" stop-color="#1a1a1a"/></linearGradient><linearGradient id="linear-gradient-4" x1="1142.32" y1="-138.29" x2="1268.33" y2="-138.29" gradientTransform="translate(341.17 -1135.8) rotate(90)" gradientUnits="userSpaceOnUse"><stop offset="0" stop-color="#f15a24"/><stop offset="0.67" stop-color="#d2392a"/><stop offset="1" stop-color="#c1272d"/></linearGradient><linearGradient id="linear-gradient-5" x1="400.69" y1="-138.29" x2="526.69" y2="-138.29" gradientTransform="matrix(0, -1, -1, 0, 341.17, 826.2)" xlink:href="#linear-gradient-4"/><linearGradient id="linear-gradient-6" x1="1230.56" y1="32.42" x2="1478.06" y2="32.42" gradientTransform="translate(341.17 -1135.8) rotate(90)" gradientUnits="userSpaceOnUse"><stop offset="0.02" stop-color="#b3b3b3"/><stop offset="0.17" stop-color="#c8c8c8"/><stop offset="0.37" stop-color="#dedede"/><stop offset="0.5" stop-color="#e6e6e6"/><stop offset="0.63" stop-color="#e1e1e1"/><stop offset="0.78" stop-color="#d4d4d4"/><stop offset="0.94" stop-color="#bdbdbd"/><stop offset="1" stop-color="#b3b3b3"/></linearGradient><linearGradient id="linear-gradient-7" x1="1268.32" y1="259" x2="1440.32" y2="259" gradientTransform="translate(341.17 -1135.8) rotate(90)" gradientUnits="userSpaceOnUse"><stop offset="0" stop-color="#c1272d"/><stop offset="0.07" stop-color="#cd342b"/><stop offset="0.22" stop-color="#e14927"/><stop offset="0.37" stop-color="#ed5625"/><stop offset="0.51" stop-color="#f15a24"/><stop offset="0.64" stop-color="#ed5525"/><stop offset="0.79" stop-color="#e04827"/><stop offset="0.94" stop-color="#cb322b"/><stop offset="1" stop-color="#c1272d"/></linearGradient><linearGradient id="linear-gradient-8" x1="1327.92" y1="131.21" x2="1380.72" y2="131.21" gradientTransform="translate(336.21 -1142.32) rotate(90)" xlink:href="#linear-gradient-7"/><linearGradient id="linear-gradient-9" x1="1355.89" y1="132.1" x2="1383.35" y2="132.1" gradientTransform="translate(341.17 -1135.8) rotate(90)" gradientUnits="userSpaceOnUse"><stop offset="0" stop-color="#999"/><stop offset="0.18" stop-color="#919191"/><stop offset="0.6" stop-color="#848484"/><stop offset="1" stop-color="gray"/></linearGradient><linearGradient id="linear-gradient-10" x1="1332.72" y1="131.21" x2="1375.92" y2="131.21" gradientTransform="translate(336.21 -1142.32) rotate(90)" gradientUnits="userSpaceOnUse"><stop offset="0" stop-color="#0071bc"/><stop offset="0.1" stop-color="#0e85c9"/><stop offset="0.24" stop-color="#1d9ad7"/><stop offset="0.38" stop-color="#26a7df"/><stop offset="0.51" stop-color="#29abe2"/><stop offset="0.63" stop-color="#26a6df"/><stop offset="0.77" stop-color="#1c99d6"/><stop offset="0.91" stop-color="#0d83c8"/><stop offset="1" stop-color="#0071bc"/></linearGradient><linearGradient id="linear-gradient-11" x1="1380.02" y1="32.77" x2="1478.06" y2="32.77" gradientTransform="translate(341.17 -1135.8) rotate(90)" gradientUnits="userSpaceOnUse"><stop offset="0" stop-color="gray"/><stop offset="0.14" stop-color="#737373"/><stop offset="0.44" stop-color="#5e5e5e"/><stop offset="0.73" stop-color="#515151"/><stop offset="1" stop-color="#4d4d4d"/></linearGradient><linearGradient id="linear-gradient-12" x1="1354.57" y1="259.03" x2="1440.32" y2="259.03" gradientTransform="translate(341.17 -1135.8) rotate(90)" gradientUnits="userSpaceOnUse"><stop offset="0" stop-color="#c1272d"/><stop offset="0.58" stop-color="#a0272d"/><stop offset="1" stop-color="#85272d"/></linearGradient><linearGradient id="linear-gradient-13" x1="1394.2" y1="131.92" x2="1411.97" y2="131.92" gradientTransform="translate(341.17 -1135.8) rotate(90)" gradientUnits="userSpaceOnUse"><stop offset="0" stop-color="#666"/><stop offset="0.18" stop-color="#5e5e5e"/><stop offset="0.6" stop-color="#515151"/><stop offset="1" stop-color="#4d4d4d"/></linearGradient><linearGradient id="linear-gradient-14" x1="1474.58" y1="-138.29" x2="1561.31" y2="-138.29" xlink:href="#linear-gradient-12"/></defs><g id="Rocket_Ship"><path id="boosterlft" class="cls-1" d="M531.29,191a112.09,112.09,0,0,0,0-35.07c-28.95-7.08-57.43-14.08-83.48-21.17v77.4C473.85,205.11,502.34,198.12,531.29,191Z" transform="translate(-4.96 -6.52)"/><path d="M447.81,134.81c2.33.64,4.69,1.27,7.06,1.9,1.41,7.85,9.26,38.23,47.74,56.86a44.49,44.49,0,0,1,5.58,3.14c-20.92,5.16-41.3,10.3-60.38,15.5Z" transform="translate(-4.96 -6.52)"/><path id="boosterrght" class="cls-2" d="M531.29,282a112.09,112.09,0,0,0,0-35.07c-28.95-7.08-57.43-14.08-83.48-21.17v77.4C473.85,296.11,502.34,289.12,531.29,282Z" transform="translate(-4.96 -6.52)"/><path d="M447.81,266.87l6.78-39.23,4.2,1.12,11,20.4c21.71,35.65,28.64,35.33,35.73,39.22-20,4.94-39.44,9.86-57.71,14.84Z" transform="translate(-4.96 -6.52)"/><path id="boostermid" class="cls-3" d="M535.73,237.79a123.5,123.5,0,0,0,0-38.57c-31.84-7.79-63.18-15.48-91.83-23.28v85.14C472.55,253.28,503.88,245.58,535.73,237.79Z" transform="translate(-4.96 -6.52)"/><path class="cls-4" d="M443.9,201.84,462,192.51s-.71,47.29,36,54.57c-11,2.81-43.73,11.17-54.13,14Z" transform="translate(-4.96 -6.52)"/><path id="left_fin" data-name="left fin" class="cls-5" d="M391.06,132.51S402.85,122,401.46,95,371,64,371,64s6.24-35.74,41.6-52.14S563.7,20,588,45.22V65.73S432,60.46,439.6,80.38c0,0,16.64,17-6.24,52.14h-42.3Z" transform="translate(-4.96 -6.52)"/><path id="right_fin" data-name="right fin" class="cls-6" d="M391.06,299.51s11.79,10.55,10.4,37.5S371,368.06,371,368.06s6.24,35.74,41.6,52.14S563.7,412,588,386.8V366.29s-156,5.27-148.36-14.65c0,0,16.64-17-6.24-52.14h-42.3Z" transform="translate(-4.96 -6.52)"/><path id="shipbody" class="cls-7" d="M456,304.68a494,494,0,0,0,0-172.35c-104.46-50.06-208-50.19-302,.18v172C247.94,354.87,351.49,354.74,456,304.68Z" transform="translate(-4.96 -6.52)"/><path id="nosecone" class="cls-8" d="M154,304.51a686.57,686.57,0,0,0,0-172c-46.32,22.32-97.53,57.34-149,86C56.43,247.17,107.64,282.18,154,304.51Z" transform="translate(-4.96 -6.52)"/><circle id="window_frame" data-name="window frame" class="cls-9" cx="205" cy="211.99" r="26.4"/><path class="cls-10" d="M183.56,221.64c0-.52,0-1,.05-1.56a26.4,26.4,0,0,0,51,8,25.91,25.91,0,0,1-51-6.42Z" transform="translate(-4.96 -6.52)"/><circle id="window" class="cls-11" cx="205" cy="211.99" r="21.6"/><path class="cls-12" d="M217.74,238.64a21.69,21.69,0,0,0,5.58-3.18" transform="translate(-4.96 -6.52)"/><path class="cls-12" d="M188.37,218.68a20.8,20.8,0,0,0,.31,3.37" transform="translate(-4.96 -6.52)"/><path class="cls-12" d="M188.67,222.06a22,22,0,0,1-.31-3.37l34.95,16.78a21.52,21.52,0,0,1-5.58,3.18Z" transform="translate(-4.96 -6.52)"/><path class="cls-13" d="M210,201c-11.57,0-21,8.25-21.55,18.61,0-.35,0-.7,0-1.06a21.6,21.6,0,1,1,43.2,0c0,.36,0,.71-.05,1.06C231,209.21,221.53,201,210,201Z" transform="translate(-4.96 -6.52)"/><path id="right_finshadow" data-name="right finshadow" class="cls-14" d="M391.06,299.51s11.79,10.55,10.4,37.5S371,368.06,371,368.06s6.24,35.74,41.6,52.14S563.7,412,588,386.8V366.29s-156,5.27-148.36-14.65c0,0,16.64-17-6.24-52.14h-42.3Z" transform="translate(-4.96 -6.52)"/><path id="bodyshadow" class="cls-15" d="M154,304.51c0-21.64,1.87-37.42,4.87-59.42,3.75.47,7.48.91,11.22,1.33a48.67,48.67,0,0,0,75,5.78c72.42,3,144-1,217.74-8a497.06,497.06,0,0,1-6.9,60.47C351.49,354.74,247.94,354.87,154,304.51Z" transform="translate(-4.96 -6.52)"/><path id="coneshadow" class="cls-16" d="M158.85,245.07c-.77,19.85-2.38,39.7-4.87,59.44C107.8,282.25,56.75,247.38,5.43,218.76A1331.35,1331.35,0,0,0,158.85,245.07Z" transform="translate(-4.96 -6.52)"/><path id="windowshadow" class="cls-17" d="M171.6,258.39s36.71,31.53,75.29,0C246.9,258.39,213,298.39,171.6,258.39Z" transform="translate(-4.96 -6.52)"/><path class="cls-18" d="M412.56,420.2C377.2,403.79,371,368.06,371,368.06s18.55-2.63,26.74-17.4c8.63-.63,25.56-3,47.35-11.89-1.3,8.64-5.46,12.88-5.46,12.88C432,371.57,588,366.3,588,366.3v20.5C563.69,412,447.91,436.61,412.56,420.2Z" transform="translate(-4.96 -6.52)"/></g></svg>