<svg id="Clipped_layers" data-name="Clipped layers" xmlns="http://www.w3.org/2000/svg" xmlns:xlink="http://www.w3.org/1999/xlink" viewBox="0 0 589.05 396.47"><defs><style>.cls-1{fill:none;}.cls-2{clip-path:url(#clip-path);}.cls-3{clip-path:url(#clip-path-2);}.cls-4{fill:url(#linear-gradient);}.cls-5{fill:#fff;}.cls-6{fill:#ccc;isolation:isolate;}.cls-6,.cls-8{opacity:0.25;}.cls-7{fill:url(#radial-gradient);}.cls-9{fill:url(#radial-gradient-2);}.cls-10{fill:url(#radial-gradient-3);}.cls-11{fill:url(#radial-gradient-4);}.cls-12{fill:#c60;}.cls-13{opacity:0.54;}.cls-14{fill:#036;}.cls-15{fill:url(#linear-gradient-2);}.cls-16{fill:url(#linear-gradient-3);}.cls-17{fill:url(#linear-gradient-4);}.cls-18{fill:url(#linear-gradient-5);}.cls-19{fill:#1a1a1a;}.cls-20{fill:url(#linear-gradient-6);}.cls-21{fill:url(#linear-gradient-7);}.cls-22{fill:url(#linear-gradient-8);}.cls-23{fill:url(#linear-gradient-9);}.cls-24{fill:url(#linear-gradient-10);}.cls-25{fill:url(#linear-gradient-11);}.cls-26{fill:url(#linear-gradient-12);}.cls-27{fill:#0071bc;}.cls-28{fill:#600;}.cls-29{fill:url(#linear-gradient-13);}.cls-30{fill:url(#linear-gradient-14);}.cls-31{fill:url(#linear-gradient-15);}.cls-32{fill:url(#linear-gradient-16);}.cls-33{fill:#ff0;}</style><clipPath id="clip-path"><rect class="cls-1" x="-8.91" y="-6" width="600" height="409.56"/></clipPath><clipPath id="clip-path-2"><rect class="cls-1" x="-290" y="-8.53" width="1366" height="414.61"/></clipPath><linearGradient id="linear-gradient" x1="366.62" y1="454.97" x2="366.62" y2="-104.94" gradientTransform="matrix(1, 0, 0, -1, 0, 394.95)" gradientUnits="userSpaceOnUse"><stop offset="0.02" stop-color="#1b1464"/><stop offset="0.1" stop-color="#1b155c"/><stop offset="0.48" stop-color="#1a1838"/><stop offset="0.8" stop-color="#1a1922"/><stop offset="1" stop-color="#1a1a1a"/></linearGradient><radialGradient id="radial-gradient" cx="76.17" cy="339" r="47.47" gradientTransform="matrix(1, 0, 0, -1.01, 0, 402.1)" gradientUnits="userSpaceOnUse"><stop offset="0" stop-color="aqua"/><stop offset="0.26" stop-color="#00fcfe"/><stop offset="0.42" stop-color="#00f4fa"/><stop offset="0.56" stop-color="#00e5f3"/><stop offset="0.69" stop-color="#00d0e9"/><stop offset="0.8" stop-color="#00b5dc"/><stop offset="0.91" stop-color="#0094cd"/><stop offset="1" stop-color="#0071bc"/></radialGradient><radialGradient id="radial-gradient-2" cx="85.29" cy="327.07" r="36.8" xlink:href="#radial-gradient"/><radialGradient id="radial-gradient-3" cx="68.01" cy="351.65" r="36.54" xlink:href="#radial-gradient"/><radialGradient id="radial-gradient-4" cx="742.27" cy="388.33" r="192.42" gradientTransform="matrix(1, 0, 0, -1.01, 0, 402.1)" gradientUnits="userSpaceOnUse"><stop offset="0.02" stop-color="#f7931e"/><stop offset="0.32" stop-color="#f5941f"/><stop offset="0.5" stop-color="#ec9821"/><stop offset="0.64" stop-color="#de9f26"/><stop offset="0.77" stop-color="#caa82c"/><stop offset="0.88" stop-color="#b0b534"/><stop offset="0.98" stop-color="#91c43d"/><stop offset="1" stop-color="#8cc63f"/></radialGradient><linearGradient id="linear-gradient-2" x1="391.28" y1="197.41" x2="391.28" y2="-85.05" gradientTransform="matrix(1, 0, 0, -1, 0, 394.95)" gradientUnits="userSpaceOnUse"><stop offset="0" stop-color="#f7931e"/><stop offset="0.06" stop-color="#f7a74a"/><stop offset="0.13" stop-color="#f7ba73"/><stop offset="0.2" stop-color="#f8cb97"/><stop offset="0.28" stop-color="#f8d9b5"/><stop offset="0.37" stop-color="#f8e4ce"/><stop offset="0.46" stop-color="#f8ede1"/><stop offset="0.58" stop-color="#f8f3ee"/><stop offset="0.72" stop-color="#f8f7f6"/><stop offset="1" stop-color="#f8f8f8"/></linearGradient><linearGradient id="linear-gradient-3" x1="924.64" y1="485.07" x2="952.32" y2="485.07" gradientTransform="matrix(-0.64, 0.77, -0.77, -0.64, 1274.62, -210.1)" gradientUnits="userSpaceOnUse"><stop offset="0.02"/><stop offset="0.28" stop-color="#343434"/><stop offset="0.43" stop-color="#4d4d4d"/><stop offset="0.44" stop-color="#484848"/><stop offset="0.52" stop-color="#2e2e2e"/><stop offset="0.61" stop-color="#1a1a1a"/><stop offset="0.7" stop-color="#0b0b0b"/><stop offset="0.81" stop-color="#030303"/><stop offset="1"/></linearGradient><linearGradient id="linear-gradient-4" x1="957.18" y1="484.87" x2="984.86" y2="484.87" gradientTransform="matrix(-0.64, 0.77, -0.77, -0.64, 1274.62, -210.1)" gradientUnits="userSpaceOnUse"><stop offset="0.02"/><stop offset="0.14" stop-color="#040404"/><stop offset="0.25" stop-color="#0f0f0f"/><stop offset="0.36" stop-color="#222"/><stop offset="0.47" stop-color="#3c3c3c"/><stop offset="0.53" stop-color="#4d4d4d"/><stop offset="0.84" stop-color="#161616"/><stop offset="1"/></linearGradient><linearGradient id="linear-gradient-5" x1="939.34" y1="484.86" x2="969.79" y2="484.86" gradientTransform="matrix(-0.64, 0.77, -0.77, -0.64, 1274.62, -210.1)" gradientUnits="userSpaceOnUse"><stop offset="0.02" stop-color="#1a1a1a"/><stop offset="0.19" stop-color="#333"/><stop offset="0.49" stop-color="#666"/><stop offset="0.78" stop-color="#383838"/><stop offset="1" stop-color="#1a1a1a"/></linearGradient><linearGradient id="linear-gradient-6" x1="878.79" y1="489.12" x2="923.83" y2="489.12" gradientTransform="matrix(-0.64, 0.77, -0.77, -0.64, 1274.62, -210.1)" gradientUnits="userSpaceOnUse"><stop offset="0" stop-color="#f15a24"/><stop offset="0.67" stop-color="#d2392a"/><stop offset="1" stop-color="#c1272d"/></linearGradient><linearGradient id="linear-gradient-7" x1="415.43" y1="488.5" x2="460.61" y2="488.5" gradientTransform="matrix(0.64, -0.77, -0.77, -0.64, 350.77, 899.72)" xlink:href="#linear-gradient-6"/><linearGradient id="linear-gradient-8" x1="910.03" y1="549.78" x2="998.55" y2="549.78" gradientTransform="matrix(-0.64, 0.77, -0.77, -0.64, 1274.62, -210.1)" gradientUnits="userSpaceOnUse"><stop offset="0.02" stop-color="#b3b3b3"/><stop offset="0.17" stop-color="#c8c8c8"/><stop offset="0.37" stop-color="#dedede"/><stop offset="0.5" stop-color="#e6e6e6"/><stop offset="0.63" stop-color="#e1e1e1"/><stop offset="0.78" stop-color="#d4d4d4"/><stop offset="0.94" stop-color="#bdbdbd"/><stop offset="1" stop-color="#b3b3b3"/></linearGradient><linearGradient id="linear-gradient-9" x1="923.22" y1="630.53" x2="984.73" y2="630.53" gradientTransform="matrix(-0.64, 0.77, -0.77, -0.64, 1274.62, -210.1)" gradientUnits="userSpaceOnUse"><stop offset="0" stop-color="#c1272d"/><stop offset="0.07" stop-color="#cd342b"/><stop offset="0.22" stop-color="#e14927"/><stop offset="0.37" stop-color="#ed5625"/><stop offset="0.51" stop-color="#f15a24"/><stop offset="0.64" stop-color="#ed5525"/><stop offset="0.79" stop-color="#e04827"/><stop offset="0.94" stop-color="#cb322b"/><stop offset="1" stop-color="#c1272d"/></linearGradient><linearGradient id="linear-gradient-10" x1="944.61" y1="584.94" x2="963.5" y2="584.94" xlink:href="#linear-gradient-9"/><linearGradient id="linear-gradient-11" x1="954.56" y1="585.24" x2="964.44" y2="585.24" gradientTransform="matrix(-0.64, 0.77, -0.77, -0.64, 1274.62, -210.1)" gradientUnits="userSpaceOnUse"><stop offset="0" stop-color="#999"/><stop offset="0.18" stop-color="#919191"/><stop offset="0.6" stop-color="#848484"/><stop offset="1" stop-color="gray"/></linearGradient><linearGradient id="linear-gradient-12" x1="946.33" y1="584.94" x2="961.78" y2="584.94" gradientTransform="matrix(-0.64, 0.77, -0.77, -0.64, 1274.62, -210.1)" gradientUnits="userSpaceOnUse"><stop offset="0" stop-color="#0071bc"/><stop offset="0.1" stop-color="#0e85c9"/><stop offset="0.24" stop-color="#1d9ad7"/><stop offset="0.38" stop-color="#26a7df"/><stop offset="0.51" stop-color="#29abe2"/><stop offset="0.63" stop-color="#26a6df"/><stop offset="0.77" stop-color="#1c99d6"/><stop offset="0.91" stop-color="#0d83c8"/><stop offset="1" stop-color="#0071bc"/></linearGradient><linearGradient id="linear-gradient-13" x1="963.45" y1="549.69" x2="998.5" y2="549.69" gradientTransform="matrix(-0.64, 0.77, -0.77, -0.64, 1274.62, -210.1)" gradientUnits="userSpaceOnUse"><stop offset="0" stop-color="gray"/><stop offset="0.14" stop-color="#737373"/><stop offset="0.44" stop-color="#5e5e5e"/><stop offset="0.73" stop-color="#515151"/><stop offset="1" stop-color="#4d4d4d"/></linearGradient><linearGradient id="linear-gradient-14" x1="953.71" y1="630.52" x2="984.68" y2="630.52" gradientTransform="matrix(-0.64, 0.77, -0.77, -0.64, 1274.62, -210.1)" gradientUnits="userSpaceOnUse"><stop offset="0" stop-color="#c1272d"/><stop offset="0.58" stop-color="#a0272d"/><stop offset="1" stop-color="#85272d"/></linearGradient><linearGradient id="linear-gradient-15" x1="968.24" y1="585.1" x2="974.67" y2="585.1" gradientTransform="matrix(-0.64, 0.77, -0.77, -0.64, 1274.62, -210.1)" gradientUnits="userSpaceOnUse"><stop offset="0" stop-color="#666"/><stop offset="0.18" stop-color="#5e5e5e"/><stop offset="0.6" stop-color="#515151"/><stop offset="1" stop-color="#4d4d4d"/></linearGradient><linearGradient id="linear-gradient-16" x1="997.57" y1="488.44" x2="1028.59" y2="488.44" xlink:href="#linear-gradient-14"/></defs><g class="cls-2"><g id="Layer_5" data-name="Layer 5"><g class="cls-3"><rect id="Space_back" data-name="Space back" class="cls-4" x="-461.38" y="-60.03" width="1656" height="559.91"/><g id="Stars"><polygon class="cls-5" points="68.02 126.03 66.52 124.62 66.67 126.69 64.64 127 66.33 128.17 65.31 129.97 67.27 129.37 68.02 131.29 68.78 129.37 70.73 129.97 69.71 128.17 71.4 127 69.38 126.69 69.53 124.62 68.02 126.03"/><polygon class="cls-5" points="240.75 41.31 238.24 38.96 238.49 42.41 235.12 42.93 237.93 44.89 236.23 47.88 239.5 46.87 240.75 50.09 242.01 46.87 245.27 47.88 243.57 44.89 246.39 42.93 243.01 42.41 243.26 38.96 240.75 41.31"/><polygon class="cls-5" points="202.86 113.04 200.35 110.69 200.6 114.14 197.23 114.66 200.04 116.62 198.34 119.61 201.61 118.6 202.86 121.82 204.12 118.6 207.38 119.61 205.68 116.62 208.5 114.66 205.12 114.14 205.37 110.69 202.86 113.04"/><polygon class="cls-5" points="147.78 110.51 146.52 109.33 146.65 111.06 144.96 111.32 146.37 112.3 145.52 113.8 147.15 113.29 147.78 114.9 148.4 113.29 150.04 113.8 149.19 112.3 150.59 111.32 148.91 111.06 149.03 109.33 147.78 110.51"/><polygon class="cls-5" points="511.2 41.31 508.69 38.96 508.94 42.41 505.57 42.93 508.38 44.89 506.68 47.88 509.95 46.87 511.2 50.09 512.46 46.87 515.72 47.88 514.02 44.89 516.84 42.93 513.46 42.41 513.71 38.96 511.2 41.31"/><polygon class="cls-5" points="419.98 58.14 418.72 56.96 418.85 58.69 417.16 58.95 418.57 59.93 417.72 61.42 419.35 60.92 419.98 62.53 420.6 60.92 422.24 61.42 421.39 59.93 422.8 58.95 421.11 58.69 421.23 56.96 419.98 58.14"/></g><g id="Stars-2" data-name="Stars"><polygon class="cls-5" points="425.38 50.89 431.65 45.03 431.03 53.65 439.47 54.95 432.42 59.84 436.68 67.33 428.51 64.8 425.38 72.84 422.24 64.8 414.08 67.33 418.33 59.84 411.29 54.95 419.73 53.65 419.11 45.03 425.38 50.89"/><polygon class="cls-5" points="520.11 230.22 526.38 224.35 525.76 232.97 534.2 234.28 527.15 239.16 531.41 246.65 523.24 244.12 520.11 252.16 516.97 244.12 508.81 246.65 513.06 239.16 506.02 234.28 514.46 232.97 513.84 224.35 520.11 230.22"/></g><g id="Stars-3" data-name="Stars"><polygon class="cls-5" points="274.05 149.62 267.78 143.75 268.4 152.37 259.96 153.68 267 158.56 262.75 166.06 270.91 163.53 274.05 171.57 277.18 163.53 285.35 166.06 281.09 158.56 288.14 153.68 279.7 152.37 280.32 143.75 274.05 149.62"/><polygon class="cls-5" points="179.32 328.94 173.05 323.08 173.67 331.7 165.23 333 172.28 337.89 168.02 345.38 176.19 342.85 179.32 350.89 182.46 342.85 190.62 345.38 186.37 337.89 193.41 333 184.97 331.7 185.59 323.08 179.32 328.94"/><polygon class="cls-5" points="41.61 322.62 38.47 319.69 38.78 324 34.56 324.65 38.08 327.09 35.96 330.84 40.04 329.57 41.61 333.59 43.17 329.57 47.26 330.84 45.13 327.09 48.65 324.65 44.43 324 44.74 319.69 41.61 322.62"/></g><g id="spacedust"><path class="cls-6" d="M138.78,572.14c-35-101.29-63-318.53,32-438.5,42.15-53.26,94-69,86.43-115.4C250-25.92,196.88-48.38,196.59-92.94c-.19-29.22,22.41-52.66,30.8-61.37,2.9-3,7.48-7.28,14.59-9.05,11.45-2.84,28.34,1.1,32.31,10.91,6,14.74-24.2,25.6-23.31,54.89.9,29.7,32.66,43.41,56.28,88.89,21.65,41.7,33.82,105,18.19,140.53-22.65,51.42-85.13,2.32-120.07,54.54-30,44.86-17.71,131.61-4.51,178.68,11.63,41.47,21.89,44.82,34.69,95.68,9.19,36.52,21.61,85.89,6.87,127.87-10.39,29.59-36.12,60.79-61.54,49.89C172.64,635,156.56,623.64,138.78,572.14Z"/><path class="cls-6" d="M549.85,585.13c.49-107.3,31.46-321.4,118.76-402,38.76-35.8,75.29-33,80.87-79.22,5.32-44.05-23.39-83.28-13.57-125.34,6.44-27.58,26.07-42,33.37-47.3,2.52-1.84,6.39-4.31,11.31-3.55,7.92,1.23,17.78,10.69,18.1,21.28.48,15.91-21.13,15.87-27.15,43.75-6.1,28.28,11,52,15.83,102.87,4.41,46.64-2.07,110.44-20,138.53-25.95,40.7-54.66-26.81-88.6,10.46-29.15,32-40.8,117.9-43,166.73-1.92,43,3.86,49.67.58,101.92C634,550.74,630.85,601.46,612.06,636c-13.25,24.32-36.62,44.94-50.33,26C557.28,655.84,549.6,639.68,549.85,585.13Z"/><path class="cls-6" d="M464.93,430.57c-33.67-101.74-58.85-319.34,37.62-438,42.83-52.7,94.9-67.78,87.92-114.25-6.66-44.26-59.44-67.42-59.15-112,.19-29.22,23.09-52.36,31.59-61,2.93-3,7.57-7.18,14.71-8.85C589.1-306.2,606-302,609.79-292.17c5.77,14.82-24.52,25.28-24,54.58.52,29.71,32.1,43.84,55.13,89.62C662-106,673.36-42.48,657.27-7.2,634,43.91,572.11-6,536.51,45.75c-30.59,44.46-19.4,131.37-6.82,178.61C540.78,266,551,269.47,563.14,320.49c8.72,36.64,20.5,86.17,5.22,128-10.77,29.45-36.9,60.31-62.18,49.07C498,493.86,482.05,482.29,464.93,430.57Z"/></g><g id="Stars-4" data-name="Stars"><polygon class="cls-5" points="494.3 230.13 491.79 227.78 492.04 231.23 488.66 231.75 491.48 233.7 489.78 236.7 493.04 235.69 494.3 238.9 495.55 235.69 498.82 236.7 497.12 233.7 499.93 231.75 496.56 231.23 496.81 227.78 494.3 230.13"/><polygon class="cls-5" points="574.56 286.51 573.05 285.1 573.2 287.17 571.18 287.49 572.87 288.66 571.84 290.46 573.8 289.85 574.56 291.78 575.31 289.85 577.27 290.46 576.25 288.66 577.94 287.49 575.91 287.17 576.06 285.1 574.56 286.51"/></g><g id="Stars-5" data-name="Stars"><polygon class="cls-5" points="131.29 177.14 128.78 174.79 129.03 178.24 125.65 178.76 128.47 180.72 126.77 183.71 130.03 182.7 131.29 185.92 132.54 182.7 135.81 183.71 134.11 180.72 136.92 178.76 133.55 178.24 133.8 174.79 131.29 177.14"/><polygon class="cls-5" points="93.4 248.87 90.89 246.52 91.14 249.97 87.76 250.49 90.58 252.45 88.88 255.44 92.14 254.43 93.4 257.65 94.65 254.43 97.92 255.44 96.21 252.45 99.03 250.49 95.66 249.97 95.91 246.52 93.4 248.87"/><polygon class="cls-5" points="38.31 246.34 37.06 245.16 37.18 246.89 35.49 247.15 36.9 248.13 36.05 249.63 37.68 249.12 38.31 250.73 38.94 249.12 40.57 249.63 39.72 248.13 41.13 247.15 39.44 246.89 39.57 245.16 38.31 246.34"/><polygon class="cls-5" points="401.74 177.14 399.23 174.79 399.48 178.24 396.1 178.76 398.92 180.72 397.22 183.71 400.48 182.7 401.74 185.92 402.99 182.7 406.26 183.71 404.56 180.72 407.37 178.76 404 178.24 404.25 174.79 401.74 177.14"/><polygon class="cls-5" points="310.51 193.97 309.26 192.79 309.38 194.52 307.69 194.78 309.1 195.76 308.25 197.25 309.89 196.75 310.51 198.36 311.14 196.75 312.77 197.25 311.92 195.76 313.33 194.78 311.64 194.52 311.77 192.79 310.51 193.97"/></g><g id="Planet2"><ellipse class="cls-7" cx="76.17" cy="58.93" rx="47.47" ry="48.06"/><g class="cls-8"><path class="cls-9" d="M74.54,88.75c-2.22-4-5.23-3.71-5.78-6.87-1.12-6.4,9.65-16.73,21.54-18.27,12.36-1.6,18.09,7.3,25.38,3.53,4.84-2.51,6.35-8.53,7.73-13.11a48.42,48.42,0,0,0-6-18.88c-1.32,9.28.57,13.8-3.58,17.76-8.34,8-22.35-4.28-37.16,3.13-4,2-8.85,9.31-18.47,23.88C53.7,86.77,50.1,92.45,47.16,97a47.25,47.25,0,0,0,25.58,9.88C74.42,101.44,77.87,94.76,74.54,88.75Z"/><path class="cls-10" d="M82.08,38.32c7,.28,9.9,3.33,15.16,1,6.14-2.67,7.48-9.11,9.91-16.86A47.22,47.22,0,0,0,86.23,12c-2.09,8.61-11.8,18.12-20.32,23.64C55,42.69,51.86,39.43,42.74,46.4c-7.59,5.8-11.2,12.48-13.87,16.8a48.48,48.48,0,0,0,4.75,17.08C41.59,58.7,62.85,37.56,82.08,38.32Z"/></g></g><g id="Planet1"><ellipse class="cls-11" cx="742.27" cy="8.99" rx="192.42" ry="194.79"/><g class="cls-8"><path class="cls-12" d="M674.22,108.53c.71-18.57-10.28-24-5.58-36.14C678.18,47.87,737,35.27,781.3,55.45c46.05,21,47.23,64,80.32,66.63,22,1.71,39.8-15.86,54.13-28.72A195.58,195.58,0,0,0,934.57,15.3C910.59,44.52,907.65,64.22,885,69c-45.46,9.62-68.26-62.71-135-68.88C732.25-1.53,700,13.31,636.3,43,606.36,57,582,68.94,562.39,78.27a195.05,195.05,0,0,0,67.71,89C647.26,152.11,673.16,136.45,674.22,108.53Z"/></g></g><g id="blueshade3" class="cls-13"><path class="cls-14" d="M69.61,88.88c-7,9.69-12.06,14.63-15,12.41-.53-4.65-2.42-11.64-3.39-17.78.33-2.66.36-2.63,3-5,2.39-1.94,7.38-6.31,12.06-7.39,4.35-.8,6-.81,6.78,2.41C73.57,76.48,73.21,82.68,69.61,88.88Z"/></g><g id="blueshade2" class="cls-13"><path class="cls-14" d="M113.86,60.12c3.26,5.24,4.62,9.7,2.92,14.18-2.37,2.32-6.16,7.15-9.35,10.54-1.23.55-1.2.49-1.82-1.91a41.78,41.78,0,0,1-1.1-12.28c.51-5.09.85-7.17,2.57-9.24C108.65,59.64,111.59,57.88,113.86,60.12Z"/></g><g id="blueshade1" class="cls-13"><path class="cls-14" d="M71.72,29.19C85.74,38.75,93,46,90,51.41c-6.52,1.86-16.27,6.47-24.87,9.37-3.77,0-3.72,0-7.23-3.87-2.87-3.53-9.29-10.84-11-18.35-1.36-7-1.46-9.79,3-11.7C54,25.28,62.79,24.56,71.72,29.19Z"/></g><path id="TransitionFlame" class="cls-15" d="M1082.88,378.85c-17.39-17.47-96-1.43-111.53-17.15-6.14-6.21-84.5,34.37-93.79,15.33-8.65-18.47-58.6,27.28-73.85-12-15.87-42.17-126.46,7.21-132.25-12.93-5.84-21-129.63,11.87-153.53,4.57-10.89-3.32-92.82-15.76-102.1-44h0c-.07-1-.18-1.92-.32-2.84a.88.88,0,0,1,0-.16c-.14-.93-.31-1.83-.51-2.72h0c-.11-.48-.23-.95-.36-1.42l-.12-.44c-.13-.47-.27-.93-.41-1.38,0-.07,0-.14-.07-.21a39.72,39.72,0,0,0-1.71-4.35l-.07-.16c-3.35-7.22-8.46-13.16-13.27-19.43l-10.16-17.39c-8.51-22-24.63-25.93-43.27-57.49-11.93-10.07-30.94-7.38-39.84-4.42-9.33,2.42-19.12,25.85-14.92,44.44,19.89,38.18,56.93,40.91,58.12,85.29.86,32.31-91.36,46.18-103,49.72C222,387,111,345.86,93.41,366.24c-13.62,15.8-128.3-49.57-144.17-7.4-15.25,39.32-69-21.33-77.65-2.86-9.29,19-65.72-6.63-69.18,1.43-3.31,7.64-145,8.26-162.35,25.73-16.71,16.57-9.67,36.5-37.73,47.16,27.52-8.28,273.5,56.79,304.27,28.39s154.77,22.34,175-5.91c21-29.54,107.89,5.49,116.48-4.93S300,460.73,304.74,463.18c3.75,3.17,64.52,32,92.61,6.07,4-3.7,7.3-7,10.06-10.16h0c29.6,19.79,71-21.87,74.07-24.5,4.76-2.45,93.17-3.37,101.65,7.15s93.3-32.4,114.35-2.86c20.21,28.25,142.9-22.6,173.65,5.72s281.57-27.4,309.1-19.11C1152.15,414.82,1099.59,395.42,1082.88,378.85ZM389.77,264.61c-.08-.19-.16-.37-.23-.56C389.61,264.24,389.69,264.42,389.77,264.61Zm6.29,11Zm-2.29-3.42-.23-.37Zm-1.06-1.75c-.08-.13-.16-.26-.23-.4C392.55,270.18,392.63,270.31,392.71,270.44Zm-1.21-2.16,0-.06Zm-.88-1.77c-.08-.18-.17-.36-.25-.53C390.45,266.15,390.53,266.33,390.62,266.51Z"/><g id="Rocket_Ship"><path id="boosterlft" class="cls-16" d="M308.58,215.18a40,40,0,0,0,8-9.69c-6.29-8.61-12.47-17.09-18-25L281,201.83C289.71,205.86,299.07,210.48,308.58,215.18Z"/><path d="M298.57,180.45l1.49,2.15c-1.4,2.49-6.16,12.69.11,26.68a16.85,16.85,0,0,1,.81,2.15c-6.88-3.38-13.61-6.65-20-9.6Z"/><path id="boosterrght" class="cls-17" d="M287.91,240.32a40,40,0,0,0,8-9.69c-6.29-8.61-12.47-17.09-18-25L260.32,227C269,231,278.4,235.61,287.91,240.32Z"/><path d="M268.58,216.93l10.76-9.28c.3.42.59.85.89,1.28l-1.63,8.16c-2.17,14.84-.21,16.34.84,19-6.57-3.23-13-6.35-19.12-9.17Z"/><path id="boostermid" class="cls-18" d="M299.17,229.11a44.28,44.28,0,0,0,8.76-10.65c-6.92-9.47-13.72-18.8-19.77-27.55l-19.34,23.52C278.42,218.86,288.71,223.94,299.17,229.11Z"/><path class="cls-19" d="M282.28,198.07l7.06,1.59s-10.94,12.9-2.57,23.35c-3.64-1.75-14.47-7-17.95-8.58Z"/><path id="left_fin" data-name="left fin" class="cls-20" d="M283.61,166.77s5.61-.2,11.35-8-1.27-15.59-1.27-15.59,9.82-8.44,23.19-4.84,39.38,37,40.27,49.56l-4.66,5.66s-41.36-37.33-43.81-30.07c0,0,.68,8.52-13.55,13Z"/><path id="right_fin" data-name="right fin" class="cls-21" d="M245.68,212.9s.82,5.62-5.68,12.75-15.38,1.56-15.38,1.56-6.42,11.31-.49,24,43.1,32.49,55.45,31.11l4.66-5.66s-43.76-34.41-37.15-38.16c0,0,8.4-.87,10.14-15.84Z"/><path id="shipbody" class="cls-22" d="M262.21,229.25a177.18,177.18,0,0,0,39.15-47.61c-17.13-37.85-45.36-61.7-82.44-69.39l-39.07,47.51C194.05,195.28,222.34,219.05,262.21,229.25Z"/><path id="nosecone" class="cls-23" d="M179.85,159.76a245.77,245.77,0,0,0,39.07-47.51c-17.71-4.48-39.64-6.59-60.19-10.51C166.26,121.49,172.28,142.94,179.85,159.76Z"/><ellipse id="window_frame" data-name="window frame" class="cls-24" cx="214.66" cy="148.88" rx="9.37" ry="9.49"/><path class="cls-25" d="M206.75,143.67l.37-.42a9.58,9.58,0,0,0,1.55,12.92,9.28,9.28,0,0,0,10.54,1,9.1,9.1,0,0,1-11.27-.39A9.39,9.39,0,0,1,206.75,143.67Z"/><ellipse id="window" class="cls-26" cx="214.66" cy="148.88" rx="7.67" ry="7.76"/><path class="cls-5" d="M212.21,156.23a7.55,7.55,0,0,0,2.24.4"/><path class="cls-5" d="M208.73,144a8,8,0,0,0-.68,1"/><path class="cls-5" d="M208.05,145a7.34,7.34,0,0,1,.68-1l5.73,12.67a7.82,7.82,0,0,1-2.24-.4Z"/><path class="cls-27" d="M218.65,144c-3.16-2.66-7.6-2.55-10.11.19l.23-.31a7.6,7.6,0,0,1,10.8-1,7.83,7.83,0,0,1,1,10.93,3.45,3.45,0,0,1-.26.28C222.5,151.14,221.81,146.69,218.65,144Z"/><path id="right_finshadow" data-name="right finshadow" class="cls-28" d="M245.68,212.9s.82,5.62-5.68,12.75-15.38,1.56-15.38,1.56-6.42,11.31-.49,24,43.1,32.49,55.45,31.11l4.66-5.66s-43.76-34.41-37.15-38.16c0,0,8.4-.87,10.14-15.84Z"/><path id="bodyshadow" class="cls-29" d="M179.85,159.76a142.36,142.36,0,0,1,14.83-15.29l2.76,2.95a17.6,17.6,0,0,0,6.16,14.92,17.1,17.1,0,0,0,13,3.94c19.07,17.49,39.53,32.85,61.22,47.86a178.53,178.53,0,0,1-15.62,15.12C222.34,219.05,194.05,195.28,179.85,159.76Z"/><path id="coneshadow" class="cls-30" d="M194.69,144.46q-7.08,8-14.83,15.3c-7.55-16.77-13.55-38.14-21.06-57.84A476.59,476.59,0,0,0,194.69,144.46Z"/><path id="windowshadow" class="cls-31" d="M195.14,151.08s2.85,17.15,20.54,17.31C215.69,168.39,197.35,171.65,195.14,151.08Z"/><path class="cls-32" d="M224.13,251.18c-5.92-12.66.49-24,.49-24s5.66,3.54,11.25,1.34a56.25,56.25,0,0,0,15.62,7.61,8.6,8.6,0,0,1-4.42,2.3c-6.61,3.75,37.15,38.16,37.15,38.16l-4.66,5.66C267.23,283.66,230.05,263.84,224.13,251.18Z"/></g><path id="flame" class="cls-33" d="M327.78,224.85c-9.09.26-19.58,10.38-19.66,19.9-.05,5.92,3.94,10.55,10.26,16.44,8.39,7.83,38.45,35.89,46.15,29.42C373.88,282.76,350.11,224.21,327.78,224.85Z"/></g></g></g></svg>